<svg width="177" height="177" viewBox="0 0 177 177" fill="none" xmlns="http://www.w3.org/2000/svg">
<g style="mix-blend-mode:color-burn" opacity="0.5">
<g clip-path="url(#clip0_116_1903)">
<path fill-rule="evenodd" clip-rule="evenodd" d="M112.572 144.716C117.116 142.988 124.208 139.194 129.339 135.745C135.478 131.618 143.914 123.747 148.114 118.225C155.66 108.307 159.607 98.2202 161.875 83.0575C163.4 72.8616 163.509 70.273 163.649 40.6789C163.799 9.2049 163.935 11.1805 161.442 8.68681C159.035 6.28011 160.459 6.38827 131.147 6.38827C102.838 6.38827 103.829 6.3305 101.49 8.11463C100.892 8.57005 100.031 9.57795 99.5739 10.3542L98.7442 11.7659L98.6609 38.5817L98.5773 65.3975L99.2414 66.941C100.021 68.7531 102.161 70.7726 103.777 71.2216C104.439 71.4053 109.96 71.5313 117.412 71.5322L129.934 71.5341L129.934 73.4663C129.934 77.8658 128.68 85.3321 127.11 90.2789C125.022 96.8555 121.837 102.158 117.223 106.738C113.459 110.474 109.101 113.441 102.974 116.439C98.4934 118.631 97.8214 119.175 96.5904 121.606C96.2643 122.25 96.0471 123.397 96.0363 124.531C96.021 126.173 96.2256 126.84 97.739 130.079C103.498 142.405 103.969 143.187 106.375 144.414C108.139 145.314 110.673 145.437 112.572 144.716ZM21.7025 144.941C23.4055 144.626 31.4132 140.708 35.7494 138.067C48.9045 130.055 59.1733 119.321 65.1824 107.301C69.5764 98.5112 71.7529 89.6323 73.2857 74.2413C73.6932 70.1513 73.8099 64.0359 73.9199 40.9887C74.072 9.16926 74.2097 11.1842 71.7124 8.68681C69.306 6.2804 70.7278 6.38827 41.4343 6.38826C12.8817 6.38826 13.8825 6.32619 11.5606 8.23999C10.9516 8.74211 10.0952 9.87171 9.65725 10.7503L8.86137 12.3476L8.86813 38.9446C8.87488 65.0379 8.88688 65.568 9.50085 66.9247C10.2202 68.5143 11.3176 69.7524 12.8562 70.7105C13.9068 71.3651 14.2368 71.3841 27.1409 71.5341L40.3501 71.6877L40.2564 74.1461C40.014 80.4956 38.4812 88.0522 36.3523 93.3905C34.1635 98.8793 31.542 102.883 27.5638 106.813C23.9432 110.389 20.2468 112.937 14.4446 115.857C8.88227 118.655 7.32765 119.945 6.69802 122.283C5.95284 125.05 6.34526 126.444 10.0128 134.068C12.0597 138.323 13.8761 141.673 14.5767 142.485C16.3565 144.549 18.9611 145.447 21.7025 144.941Z" fill="#201E1F"/>
</g>
</g>
<defs>
<clipPath id="clip0_116_1903">
<rect width="157.334" height="138.796" fill="white" transform="translate(163.719 145.184) rotate(-180)"/>
</clipPath>
</defs>
</svg>
