<svg width="65" height="81" viewBox="0 0 65 81" fill="none" xmlns="http://www.w3.org/2000/svg">
<path d="M37.0422 12.6021H35.2837C34.8437 12.6021 34.4217 12.7769 34.1106 13.088C33.7995 13.3992 33.6247 13.8211 33.6247 14.2611V22.556C33.6247 23.4722 34.3674 24.2149 35.2837 24.2149C36.1999 24.2149 36.9426 23.4722 36.9426 22.556V15.9201H40.2606C40.5645 15.9187 40.8623 15.8338 41.1213 15.6747C41.3802 15.5156 41.5906 15.2884 41.7292 15.018C41.8679 14.7475 41.9296 14.4441 41.9076 14.1409C41.8855 13.8378 41.7806 13.5465 41.6044 13.2989L33.3095 1.6861C33.1557 1.47366 32.9537 1.30071 32.7201 1.18145C32.4865 1.06219 32.228 1 31.9657 1C31.7034 1 31.4449 1.06219 31.2113 1.18145C30.9777 1.30071 30.7758 1.47366 30.622 1.6861L22.3271 13.2989C22.1508 13.5465 22.0459 13.8378 22.0239 14.1409C22.0019 14.4441 22.0636 14.7475 22.2022 15.018C22.3409 15.2884 22.5512 15.5156 22.8102 15.6747C23.0692 15.8338 23.3669 15.9187 23.6709 15.9201H26.9888V37.4867C26.9888 38.403 27.7316 39.1457 28.6478 39.1457C29.564 39.1457 30.3067 38.403 30.3067 37.4867V14.2611C30.3067 13.8211 30.132 13.3992 29.8208 13.088C29.5097 12.7769 29.0878 12.6021 28.6478 12.6021H26.8893L31.9657 5.50174L37.0422 12.6021Z" fill="#353535"/>
<path d="M19.454 21.9473C19.1903 21.8213 18.898 21.7673 18.6066 21.7906C18.3153 21.8139 18.0353 21.9137 17.795 22.08L6.18219 30.3749C5.96975 30.5287 5.79681 30.7307 5.67754 30.9642C5.55828 31.1978 5.49609 31.4564 5.49609 31.7186C5.49609 31.9809 5.55828 32.2394 5.67754 32.473C5.79681 32.7066 5.96975 32.9086 6.18219 33.0624L17.795 41.3573C18.0419 41.5159 18.3265 41.6062 18.6197 41.6189C18.9129 41.6316 19.2042 41.5664 19.4639 41.4298C19.7237 41.2931 19.9425 41.0901 20.0981 40.8413C20.2538 40.5925 20.3406 40.3068 20.3498 40.0135V36.6956H22.0088C22.925 36.6956 23.6678 35.9528 23.6678 35.0366C23.6678 34.1204 22.925 33.3776 22.0088 33.3776H18.6908C18.2509 33.3776 17.8289 33.5524 17.5178 33.8635C17.2067 34.1746 17.0319 34.5966 17.0319 35.0366V36.7951L9.93147 31.7186L17.0319 26.6422V28.4007C17.0288 28.6428 17.0787 28.8827 17.1781 29.1034C17.2775 29.3242 17.4241 29.5205 17.6075 29.6786C17.7909 29.8367 18.0067 29.9527 18.2397 30.0186C18.4727 30.0844 18.7173 30.0984 18.9563 30.0597C20.002 29.7681 21.0986 29.7076 22.17 29.8824C23.2414 30.0571 24.262 30.4629 25.1608 31.0716C26.9857 32.5589 26.9162 35.1869 26.9857 36.6956V44.4591H30.3037V36.6956C30.2679 35.4666 30.0642 32.8467 29.5512 31.7294C29.0382 30.6121 28.2263 29.3614 27.3175 28.5334C25.3423 26.9888 22.8429 26.2747 20.3498 26.5426V23.4238C20.3505 23.1191 20.2672 22.8202 20.1092 22.5598C19.9511 22.2993 19.7245 22.0874 19.454 21.9473Z" fill="#353535"/>
<path d="M57.8167 29.5071L46.2039 21.2122C45.9563 21.0359 45.665 20.931 45.3619 20.909C45.0587 20.887 44.7554 20.9487 44.4849 21.0874C44.2144 21.226 43.9872 21.4363 43.8281 21.6953C43.669 21.9543 43.5841 22.252 43.5827 22.556V25.6749C41.0896 25.4069 38.5903 26.121 36.6151 27.6656C35.7063 28.4936 34.9735 29.4962 34.4605 30.6135C33.9474 31.7307 33.6646 32.9399 33.6289 34.1688V44.4591H36.9469V34.1688C37.0078 32.6485 37.6631 31.2128 38.7717 30.1707C39.6732 29.5676 40.695 29.1677 41.7663 28.9986C42.8377 28.8296 43.9329 28.8956 44.9763 29.1919C45.2145 29.2298 45.4582 29.2153 45.6903 29.1494C45.9224 29.0835 46.1373 28.9678 46.32 28.8103C46.5043 28.6528 46.6518 28.4567 46.7521 28.236C46.8524 28.0153 46.9031 27.7753 46.9007 27.5329V25.7744L54.0011 30.8509L46.9007 35.9273V34.1688C46.9007 33.7288 46.7259 33.3068 46.4148 32.9957C46.1037 32.6846 45.6817 32.5098 45.2417 32.5098H41.9238C41.0075 32.5098 40.2648 33.2526 40.2648 34.1688C40.2648 35.085 41.0075 35.8278 41.9238 35.8278H43.5827V39.1457C43.5841 39.4497 43.669 39.7474 43.8281 40.0064C43.9872 40.2654 44.2144 40.4757 44.4849 40.6143C44.7554 40.753 45.0587 40.8147 45.3619 40.7927C45.665 40.7707 45.9563 40.6658 46.2039 40.4895L57.8167 32.1946C58.0292 32.0408 58.2021 31.8388 58.3214 31.6052C58.4406 31.3717 58.5028 31.1131 58.5028 30.8509C58.5028 30.5886 58.4406 30.33 58.3214 30.0965C58.2021 29.8629 58.0292 29.6609 57.8167 29.5071Z" fill="#353535"/>
<circle cx="32.4544" cy="56.5808" r="15.8291" fill="#CB8511" stroke="#353535" stroke-width="3.18013"/>
<path d="M26.4303 53.4638C26.4303 56.2222 28.9135 58.4932 31.9955 58.4932C33.6218 58.4932 34.9107 59.5657 34.9107 60.8752C34.9107 62.1818 33.622 63.2544 31.9955 63.2544C30.3666 63.2544 29.0804 62.1819 29.0804 60.8752C29.0804 60.1435 28.4871 59.5514 27.7554 59.5514C27.0236 59.5514 26.4303 60.1435 26.4303 60.8752C26.4303 63.2248 28.2339 65.2209 30.6705 65.761V66.6983C30.6705 67.4308 31.2647 68.0195 31.9955 68.0195C32.7264 68.0195 33.3206 67.4308 33.3206 66.6983V65.761C35.7572 65.2209 37.5581 63.2247 37.5581 60.8752C37.5581 58.117 35.0779 55.8431 31.9955 55.8431C30.3666 55.8431 29.0804 54.7706 29.0804 53.4638C29.0804 52.1543 30.3668 51.082 31.9955 51.082C33.6218 51.082 34.9107 52.1543 34.9107 53.4638C34.9107 54.1963 35.5049 54.785 36.2357 54.785C36.9675 54.785 37.5581 54.1955 37.5581 53.4638C37.5581 51.1118 35.7573 49.1155 33.3206 48.5754V47.6407C33.3206 46.909 32.7273 46.3169 31.9955 46.3169C31.2638 46.3169 30.6705 46.909 30.6705 47.6407V48.5754C28.2339 49.1154 26.4303 51.1116 26.4303 53.4638Z" fill="#353535" stroke="#353535" stroke-width="0.530022"/>
</svg>
