<svg width="73" height="78" viewBox="0 0 73 78" fill="none" xmlns="http://www.w3.org/2000/svg">
<circle cx="36" cy="45" r="15" fill="#CB8511"/>
<path d="M27.4781 13.6135L27.4645 13.6583V13.7051V19.4683L4.80446 19.4684C2.5267 19.4684 0.683226 21.3087 0.683226 23.5819V66.7569C0.683226 69.03 2.52662 70.8703 4.80446 70.8703H68.153C70.4307 70.8703 72.2742 69.03 72.2742 66.7569V23.5819C72.2742 21.3087 70.4308 19.4684 68.153 19.4684H45.4937V13.7051V13.6583L45.4802 13.6135C44.9552 11.8761 43.3561 10.6832 41.534 10.6832H31.4242C29.6022 10.6832 28.003 11.876 27.4781 13.6135ZM4.79716 22.6299H24.3774H48.5249H68.1522C68.6803 22.6299 69.1056 23.0574 69.1056 23.5819V43.6688H54.4686C53.6636 34.4497 45.9089 27.2104 36.4778 27.2104C27.0469 27.2104 19.2894 34.449 18.487 43.6688H3.85V23.5819C3.85 23.0564 4.27638 22.6299 4.79716 22.6299ZM3.85049 66.7565V46.834H18.494C19.2959 56.0444 27.0483 63.2803 36.4783 63.2803C45.9083 63.2803 53.6601 56.0443 54.4626 46.834H69.1061V66.7565C69.1061 67.282 68.6797 67.7085 68.159 67.7085H4.80398C4.27584 67.7085 3.85049 67.281 3.85049 66.7565ZM42.165 14.0635C42.3456 14.19 42.4767 14.354 42.5372 14.5243V19.4684H30.5245L30.4881 14.4346C30.6103 14.0881 30.9819 13.8511 31.4232 13.8511H41.5331C41.742 13.8511 41.971 13.9277 42.165 14.0635ZM36.4782 30.3756C44.6951 30.3756 51.3667 37.0362 51.3667 45.2456V45.2485C51.3603 53.4547 44.6949 60.1155 36.4782 60.1155C28.2615 60.1155 21.596 53.455 21.5898 45.2485V45.2456C21.5898 37.0365 28.2614 30.3756 36.4782 30.3756ZM29.826 40.8541C29.826 44.1513 32.7942 46.8659 36.4782 46.8659C38.4221 46.8659 39.9628 48.1478 39.9628 49.7131C39.9628 51.2749 38.4223 52.557 36.4782 52.557C34.5311 52.557 32.9937 51.2751 32.9937 49.7131C32.9937 48.8385 32.2845 48.1307 31.4098 48.1307C30.5352 48.1307 29.826 48.8385 29.826 49.7131C29.826 52.5217 31.9819 54.9077 34.8944 55.5532V56.6736C34.8944 57.5492 35.6046 58.2528 36.4782 58.2528C37.3519 58.2528 38.0621 57.5492 38.0621 56.6736V55.5532C40.9746 54.9077 43.1273 52.5216 43.1273 49.7131C43.1273 46.4162 40.1627 43.6981 36.4782 43.6981C34.5311 43.6981 32.9937 42.4161 32.9937 40.8541C32.9937 39.2888 34.5314 38.007 36.4782 38.007C38.4221 38.007 39.9628 39.2888 39.9628 40.8541C39.9628 41.7297 40.673 42.4333 41.5466 42.4333C42.4213 42.4333 43.1273 41.7287 43.1273 40.8541C43.1273 38.0427 40.9747 35.6564 38.0621 35.0108V33.8936C38.0621 33.019 37.3529 32.3112 36.4782 32.3112C35.6036 32.3112 34.8944 33.019 34.8944 33.8936V35.0108C31.9818 35.6563 29.826 38.0424 29.826 40.8541Z" fill="#353535" stroke="#353535" stroke-width="0.633548"/>
</svg>
