<svg width="71" height="75" viewBox="0 0 71 75" fill="none" xmlns="http://www.w3.org/2000/svg">
<path d="M69.2378 45.1122C69.2439 43.2853 67.7589 41.7993 65.9336 41.7993H47.9107V33.1232C47.9107 31.3004 46.4259 29.8115 44.6002 29.8115H27.2682C25.4458 29.8115 23.9578 31.2971 23.9578 33.1232V36.8019L5.92934 36.7993H5.92928C5.04625 36.7993 4.21366 37.1454 3.59055 37.7688L3.83982 38.0179L3.59055 37.7688C2.96457 38.395 2.62155 39.2253 2.62155 40.1083V69.4499C2.62155 70.3332 2.96746 71.166 3.59055 71.7894L3.85681 71.5233L3.59055 71.7894C4.21654 72.4156 5.04652 72.7589 5.92928 72.7589H65.9274C67.7498 72.7589 69.2378 71.2733 69.2378 69.4472V45.1122ZM69.2378 45.1122L68.8594 45.1109H69.2378V45.1122ZM5.44773 39.6229L5.44775 39.6229C5.57627 39.4943 5.75036 39.4223 5.93538 39.4223H23.9583V70.1412H5.92984C5.75312 70.1412 5.58054 70.0713 5.4469 69.9398C5.3189 69.8113 5.2472 69.6374 5.2472 69.4526V40.111C5.2472 39.9257 5.31922 39.7515 5.44773 39.6229ZM27.2686 32.4318H44.595C44.9754 32.4318 45.2833 32.741 45.2833 33.1205V70.1384L26.5805 70.141V33.1232C26.5805 32.7403 26.8888 32.4318 27.2686 32.4318ZM66.6218 69.4526C66.6218 69.8336 66.3125 70.1413 65.9335 70.1413H47.9106V44.4278H65.9335C66.3139 44.4278 66.6218 44.7369 66.6218 45.1164V69.4526Z" fill="#353535" stroke="#353535" stroke-width="0.756899"/>
<path d="M35.5298 10.5656C35.7085 10.1782 36.2592 10.1782 36.4379 10.5656L37.6232 13.1354C38.1331 14.2407 39.1805 15.0018 40.3893 15.1451L43.1996 15.4783C43.6233 15.5285 43.7935 16.0522 43.4802 16.3419L41.4025 18.2634C40.5088 19.0898 40.1087 20.3212 40.3459 21.5151L40.8975 24.2908C40.9806 24.7093 40.5352 25.033 40.1628 24.8246L37.6934 23.4423C36.6312 22.8477 35.3365 22.8477 34.2743 23.4423L31.8049 24.8246C31.4325 25.033 30.9871 24.7093 31.0702 24.2909L31.6218 21.5151C31.859 20.3212 31.4589 19.0898 30.5652 18.2634L28.4875 16.3419C28.1742 16.0522 28.3444 15.5285 28.7681 15.4783L31.5784 15.1451C32.7871 15.0018 33.8346 14.2407 34.3445 13.1354L35.5298 10.5656Z" fill="#CB8511" stroke="#353535" stroke-width="3"/>
</svg>
