<svg width="53" height="52" viewBox="0 0 53 52" fill="none" xmlns="http://www.w3.org/2000/svg">
<path d="M44.2985 22.6457C50.9338 22.0607 52.3794 18.1012 52.6128 15.784C52.8822 13.3393 52.0022 10.0772 50.5118 9.7097C50.243 9.64136 49.9537 9.65692 49.6977 9.75349C49.4416 9.85006 49.2364 10.0211 49.1201 10.2346C48.0965 11.8469 43.4904 14.3966 42.6015 14.1342C42.5753 14.1149 42.5556 14.0902 42.5446 14.0625C42.5336 14.0349 42.5315 14.0052 42.5386 13.9767C42.5925 13.5492 43.4994 12.8218 44.1279 12.4769L44.2446 12.4019C49.8563 7.84992 47.9798 4.07037 46.0403 1.62566C45.6109 1.07187 45.0057 0.628588 44.2923 0.345228C43.5789 0.0618675 42.7853 -0.0504314 41.9999 0.0208512C32.3208 1.02573 31.7012 4.78279 31.0099 8.75731C30.7637 10.4616 30.2474 12.1311 29.4745 13.7217C29.3609 13.8525 29.2347 13.9754 29.0974 14.0892C29.0974 14.0892 29.0974 14.0442 29.0974 14.0292C28.7286 11.709 28.5217 9.3728 28.4779 7.03252C28.4779 7.03252 28.4779 6.97253 28.4779 6.94253C28.4041 6.50965 28.2008 6.09929 27.887 5.74934C27.5731 5.39939 27.1587 5.12113 26.6821 4.94027C25.3802 4.51282 23.782 4.94027 21.7797 6.3201C16.3924 9.94217 19.8672 18.6786 19.9839 19.0686V19.1361C20.3921 19.7556 20.6198 20.4467 20.6484 21.1533C20.5656 21.1691 20.4797 21.1691 20.397 21.1533C19.7505 21.0184 18.1164 18.5512 16.2847 12.4694C16.197 12.1752 16.0304 11.9014 15.7976 11.6688C15.5647 11.4362 15.2717 11.2508 14.9405 11.1266C14.6093 11.0024 14.2487 10.9426 13.8859 10.9518C13.523 10.9609 13.1674 11.0388 12.8458 11.1795C11.5218 11.7222 10.3875 12.5408 9.55243 13.5561C8.71733 14.5715 8.20956 15.7494 8.07809 16.9763C7.35081 22.0157 11.6696 28.1275 13.2948 29.3199C13.59 29.5353 13.8661 29.7684 14.1208 30.0173C14.3063 30.1905 14.4089 30.4148 14.4089 30.6472C14.4089 30.8796 14.3063 31.1039 14.1208 31.2771C13.9554 31.4631 13.7133 31.5912 13.4414 31.6369C13.1695 31.6826 12.887 31.6426 12.6483 31.5246C10.9154 30.7222 8.58988 26.3352 7.17124 22.6007C6.71332 21.4008 6.09379 20.7259 5.26774 20.5384C5.02419 20.4847 4.76926 20.4778 4.52203 20.518C4.2748 20.5583 4.04168 20.6447 3.84011 20.7709C0.607756 22.3607 -2.13077 31.9071 2.34964 39.0762C6.16562 45.173 11.6696 42.9832 16.0064 41.221C17.04 40.7783 18.1044 40.3877 19.1938 40.0511C22.1837 39.1962 24.4464 43.4707 25.2814 45.3455C26.0774 47.2213 27.4864 48.8735 29.3488 50.1149C30.8022 51.139 32.6288 51.7207 34.5296 51.7647C36.0803 51.7397 37.5906 51.347 38.8843 50.6323C39.4856 50.3163 39.9829 49.8799 40.3311 49.3626C40.6792 48.8453 40.867 48.2635 40.8775 47.6702C40.8893 47.0775 40.7218 46.4919 40.3907 45.9675C40.0595 45.4432 39.5754 44.9971 38.983 44.6706C37.2499 43.7882 35.4113 43.0593 33.497 42.4958C32.9762 42.3233 32.4285 42.1508 32.2759 42.0759C31.9446 41.9481 31.6752 41.73 31.5121 41.4574C31.3489 41.1849 31.3016 40.874 31.378 40.576C31.5576 40.2311 32.2759 40.1636 33.2187 40.4111C35.2531 40.9934 37.1628 41.8441 38.8753 42.9308C39.7732 43.4332 40.671 43.9581 41.7305 44.4906C42.3083 44.7913 42.9853 44.9315 43.6643 44.891C44.3434 44.8506 44.9897 44.6317 45.5106 44.2656C47.6206 42.9083 49.0303 39.4287 48.312 37.3739C47.6565 35.4916 45.1694 35.6866 43.1671 35.8741C41.551 36.0016 39.8719 36.1291 39.0549 35.4466C38.4443 34.9367 38.4443 34.6967 38.4443 34.6967C38.552 34.5168 39.6834 34.1643 41.6138 34.3968C42.9247 34.5543 47.432 34.9067 49.9192 32.6045C51.6251 31.0297 52.0022 28.63 51.0595 25.4728C50.9833 25.1983 50.8328 24.942 50.6195 24.7236C50.4063 24.5052 50.136 24.3306 49.8294 24.213C49.4253 24.0771 48.99 24.0181 48.5552 24.0401C48.1203 24.0622 47.6968 24.1648 47.3153 24.3405C43.7238 25.8403 41.0302 26.0203 38.0133 24.9554C37.9681 24.9444 37.9282 24.9219 37.8992 24.8909C37.8702 24.86 37.8536 24.8222 37.8517 24.7829C37.8477 24.6406 37.8819 24.4994 37.9518 24.3697C38.0217 24.2399 38.1256 24.1248 38.2557 24.033C38.6059 23.7105 39.9707 23.0281 44.2985 22.6457ZM36.0739 25.0154C36.127 25.306 36.2701 25.5799 36.4891 25.8101C36.708 26.0403 36.9951 26.2187 37.322 26.3277C40.9135 27.5651 44.1009 27.3626 48.0965 25.6603C48.2394 25.5885 48.3988 25.5427 48.5644 25.5259C48.7299 25.5091 48.8979 25.5217 49.0572 25.5628C49.118 25.5863 49.1709 25.6218 49.2116 25.6662C49.2523 25.7107 49.2794 25.7627 49.2907 25.8178C50.0808 28.465 49.8384 30.4072 48.5634 31.5846C46.6868 33.3319 42.9696 33.0169 41.8742 32.8969C39.8989 32.657 37.5464 32.822 36.8371 34.0068C36.5318 34.5168 36.442 35.3642 37.735 36.4815C39.0279 37.5989 41.3265 37.4939 43.2839 37.3514C45.2412 37.2089 46.3277 37.1864 46.5432 37.8089C47.019 39.1587 46.0314 42.0234 44.3703 43.0582C44.1346 43.2485 43.8286 43.3662 43.5023 43.3921C43.176 43.418 42.8489 43.3505 42.5745 43.2007C41.551 42.6908 40.671 42.1883 39.8181 41.7009C37.9673 40.5398 35.9061 39.6334 33.7125 39.0162C31.4409 38.4313 30.121 39.1437 29.69 40.0061C29.4403 40.6444 29.4723 41.3363 29.7802 41.9566C30.0882 42.577 30.6518 43.0848 31.369 43.3882C31.8506 43.5841 32.3453 43.7569 32.8505 43.9056C34.6394 44.4381 36.36 45.1189 37.9864 45.9379C38.3281 46.1241 38.6077 46.3795 38.7992 46.6804C38.9908 46.9812 39.0879 47.3177 39.0817 47.6584C39.0754 47.9991 38.9659 48.3329 38.7634 48.6287C38.5608 48.9245 38.2719 49.1727 37.9235 49.35C35.4364 50.6623 32.9224 50.5199 30.4532 48.93C28.8459 47.8597 27.6272 46.4367 26.9335 44.8205C26.1911 42.8497 24.9056 41.0518 23.1804 39.5712C22.7225 27.6701 34.6373 18.1537 34.763 18.0562C34.9368 17.92 35.0388 17.7316 35.0463 17.5326C35.0539 17.3336 34.9665 17.1403 34.8034 16.9951C34.6403 16.8499 34.4148 16.7648 34.1765 16.7584C33.9383 16.7521 33.7067 16.8251 33.5329 16.9613C33.0481 17.3738 21.5463 26.5452 21.4026 38.6413C20.9594 38.5058 20.4917 38.4348 20.0199 38.4313C19.5398 38.4334 19.0635 38.5018 18.6102 38.6338C17.4668 38.9932 16.3487 39.4063 15.2611 39.8711C10.8256 41.6559 6.99166 43.1932 3.98377 38.3713C-0.236249 31.6971 2.69083 22.9831 4.75595 22.0457H4.8188C5.11863 22.3459 5.33073 22.7002 5.43833 23.0806C6.18357 25.0379 8.84129 31.5171 11.7684 32.8295L11.8582 32.867C12.4621 33.1424 13.165 33.2258 13.8368 33.1017C14.5087 32.9776 15.104 32.6544 15.5125 32.192C15.9508 31.7413 16.1839 31.1756 16.1708 30.595C16.1577 30.0145 15.899 29.4565 15.4407 29.0199C15.129 28.7258 14.7962 28.4478 14.444 28.1875C13.0434 27.1601 9.18248 21.6033 9.81998 17.1413C9.93324 16.1561 10.3478 15.2117 11.0239 14.3988C11.7 13.586 12.6149 12.9319 13.6808 12.4994C13.7617 12.4657 13.8509 12.4482 13.9412 12.4482C14.0316 12.4482 14.1207 12.4657 14.2016 12.4994C14.2851 12.5307 14.3592 12.5772 14.4182 12.6356C14.4773 12.6941 14.5199 12.7628 14.5428 12.8368C17.3891 22.3007 19.3554 22.5857 20.0917 22.6457C20.4398 22.7146 20.8042 22.6997 21.1427 22.6028C21.4811 22.5059 21.7798 22.331 22.0042 22.0982C22.902 21.0858 22.0042 19.1736 21.6809 18.5512C21.3577 17.9287 18.6551 10.3546 22.8931 7.51996C24.8325 6.17012 25.7124 6.24511 26.0356 6.3351C26.4846 6.47758 26.6552 7.00252 26.6911 7.13001C26.7316 9.54645 26.9535 11.9584 27.3555 14.3517C27.6159 15.349 28.2534 15.6415 28.6934 15.7165C29.8247 15.8965 30.7675 14.8466 31.0278 14.5166L31.0907 14.4341C31.9722 12.6918 32.5527 10.8536 32.8146 8.97479C33.4521 5.14274 33.937 2.37557 42.1974 1.52067C42.6516 1.47025 43.1135 1.52713 43.5309 1.68487C43.9483 1.8426 44.3044 2.09487 44.5588 2.41307C46.3546 4.70779 47.5488 7.54996 43.0235 11.247C42.5476 11.532 40.9045 12.5819 40.7339 13.7892C40.6995 14.0353 40.7326 14.2847 40.8306 14.5185C40.9286 14.7524 41.089 14.9646 41.2995 15.1391C41.5274 15.3365 41.8124 15.4816 42.1269 15.5604C42.4414 15.6392 42.7749 15.6491 43.0953 15.589C45.1963 15.3715 48.6981 13.2343 50.2783 11.592C51.0886 13.4319 51.1673 15.441 50.5028 17.3213C49.6049 19.571 47.4859 20.8684 44.2177 21.1533C40.6261 21.4683 38.2917 22.0457 37.1783 22.8631C36.7927 23.1156 36.4894 23.4451 36.2964 23.8212C36.1033 24.1974 36.0268 24.608 36.0739 25.0154Z" fill="#201E1F"/>
</svg>
