<svg width="62" height="56" viewBox="0 0 62 56" fill="none" xmlns="http://www.w3.org/2000/svg">
<g clip-path="url(#clip0_895_996)">
<circle cx="31" cy="5.5" r="5.5" fill="#CB8511"/>
<circle cx="50" cy="24.5" r="5.5" fill="#CB8511"/>
<circle cx="13" cy="24.5" r="5.5" fill="#CB8511"/>
<path d="M60.916 35.5822C60.4715 34.7366 59.8042 34.0286 58.9864 33.5348C58.1685 33.0411 57.2312 32.7804 56.2758 32.7809H41.0936L36.0044 16.2088C35.6722 15.1356 35.0051 14.1969 34.1009 13.5303C33.1967 12.8636 32.1027 12.5039 30.9793 12.5039C29.8558 12.5039 28.7619 12.8636 27.8577 13.5303C26.9534 14.1969 26.2864 15.1356 25.9542 16.2088L20.8649 32.7809H5.68273C4.73386 32.7949 3.80646 33.0654 2.99878 33.5635C2.1911 34.0617 1.53323 34.7691 1.09487 35.6108C0.65651 36.4524 0.453992 37.397 0.508774 38.3444C0.563556 39.2917 0.873597 40.2067 1.40605 40.9922L9.95941 53.7153C10.5208 54.53 11.2998 55.1707 12.2075 55.5643C13.1153 55.9579 14.1154 56.0886 15.0938 55.9415C16.0723 55.7944 16.9897 55.3754 17.7416 54.7323C18.4936 54.0892 19.0497 53.2478 19.3467 52.304L24.0297 37.0576H37.9289L42.6119 52.304C42.9089 53.2478 43.465 54.0892 44.2169 54.7323C44.9688 55.3754 45.8863 55.7944 46.8647 55.9415C47.8432 56.0886 48.8433 55.9579 49.751 55.5643C50.6588 55.1707 51.4378 54.53 51.9992 53.7153L60.5525 40.9922C61.1053 40.2113 61.4318 39.2929 61.4959 38.3383C61.56 37.3838 61.3594 36.43 60.916 35.5822ZM15.2625 51.0638C15.2045 51.2423 15.0976 51.4011 14.954 51.522C14.8104 51.643 14.6358 51.7213 14.4499 51.748C14.2685 51.7763 14.0827 51.7509 13.9155 51.6749C13.7483 51.5989 13.607 51.4757 13.5091 51.3203L4.87016 38.7041C4.76887 38.5563 4.70989 38.3836 4.69959 38.2047C4.68929 38.0258 4.72805 37.8475 4.81169 37.6891C4.89533 37.5306 5.02067 37.398 5.17418 37.3055C5.32769 37.2131 5.50353 37.1643 5.68273 37.1645H19.5392L15.2625 51.0638ZM25.3341 32.7809L30.0384 17.449C30.0999 17.2474 30.2245 17.0709 30.3939 16.9454C30.5633 16.82 30.7685 16.7523 30.9793 16.7523C31.1901 16.7523 31.3953 16.82 31.5647 16.9454C31.7341 17.0709 31.8587 17.2474 31.9202 17.449L36.6245 32.7809H25.3341ZM57.0884 38.7041L48.5351 51.4273C48.4371 51.5826 48.2958 51.7059 48.1286 51.7819C47.9614 51.8578 47.7756 51.8833 47.5942 51.8549C47.4083 51.8282 47.2337 51.7499 47.0901 51.6289C46.9465 51.508 46.8396 51.3492 46.7816 51.1707L42.5049 37.1645H56.3614C56.5333 37.1789 56.6983 37.2383 56.8401 37.3366C56.9818 37.4349 57.0951 37.5688 57.1688 37.7247C57.2424 37.8807 57.2738 38.0533 57.2597 38.2252C57.2456 38.3971 57.1865 38.5623 57.0884 38.7041Z" fill="black"/>
</g>
<defs>
<clipPath id="clip0_895_996">
<rect width="61.0076" height="56" fill="white" transform="translate(0.5)"/>
</clipPath>
</defs>
</svg>
