<svg width="78" height="56" viewBox="0 0 78 56" fill="none" xmlns="http://www.w3.org/2000/svg">
<g clip-path="url(#clip0_895_982)">
<path d="M77.92 44.9965C77.92 45.7391 77.625 46.4513 77.0999 46.9764C76.5748 47.5015 75.8626 47.7965 75.12 47.7965C68.96 47.7965 66.048 42.1965 63.696 37.9125C61.344 33.6285 59.804 30.9965 57.2 30.9965C54.596 30.9965 53 33.6005 50.676 37.9125C48.352 42.2245 45.412 47.7965 39.224 47.7965C33.036 47.7965 30.124 42.1965 27.772 37.9125C25.42 33.6285 23.88 30.9965 21.248 30.9965C18.616 30.9965 17.048 33.6005 14.752 37.9125C12.456 42.2245 9.46 47.7965 3.3 47.7965C2.55739 47.7965 1.8452 47.5015 1.3201 46.9764C0.794999 46.4513 0.5 45.7391 0.5 44.9965C0.5 44.2539 0.794999 43.5417 1.3201 43.0166C1.8452 42.4915 2.55739 42.1965 3.3 42.1965C5.904 42.1965 7.5 39.5925 9.796 35.2805C12.092 30.9685 15.088 25.3965 21.248 25.3965C27.408 25.3965 30.348 30.9965 32.7 35.2805C35.052 39.5645 36.592 42.1965 39.224 42.1965C41.856 42.1965 43.424 39.5925 45.72 35.2805C48.016 30.9685 51.012 25.3965 57.172 25.3965C63.332 25.3965 66.244 30.9965 68.596 35.2805C70.948 39.5645 72.488 42.1965 75.092 42.1965C75.462 42.1928 75.8292 42.2625 76.1721 42.4015C76.5151 42.5406 76.827 42.7462 77.09 43.0066C77.353 43.267 77.5617 43.5769 77.7042 43.9185C77.8467 44.26 77.92 44.6264 77.92 44.9965ZM64.424 50.4005H50.424C49.6814 50.4005 48.9692 50.6955 48.4441 51.2206C47.919 51.7457 47.624 52.4579 47.624 53.2005C47.624 53.9431 47.919 54.6553 48.4441 55.1804C48.9692 55.7055 49.6814 56.0005 50.424 56.0005H64.424C65.1666 56.0005 65.8788 55.7055 66.4039 55.1804C66.929 54.6553 67.224 53.9431 67.224 53.2005C67.224 52.4579 66.929 51.7457 66.4039 51.2206C65.8788 50.6955 65.1666 50.4005 64.424 50.4005ZM28.024 50.4005H14.024C13.2814 50.4005 12.5692 50.6955 12.0441 51.2206C11.519 51.7457 11.224 52.4579 11.224 53.2005C11.224 53.9431 11.519 54.6553 12.0441 55.1804C12.5692 55.7055 13.2814 56.0005 14.024 56.0005H28.024C28.7666 56.0005 29.4788 55.7055 30.0039 55.1804C30.529 54.6553 30.824 53.9431 30.824 53.2005C30.824 52.4579 30.529 51.7457 30.0039 51.2206C29.4788 50.6955 28.7666 50.4005 28.024 50.4005Z" fill="black"/>
<circle cx="58.5" cy="13" r="8" fill="#CB8511"/>
<circle cx="21.5" cy="13" r="8" fill="#CB8511"/>
</g>
<defs>
<clipPath id="clip0_895_982">
<rect width="77.42" height="56" fill="white" transform="translate(0.5)"/>
</clipPath>
</defs>
</svg>
