<svg width="61" height="56" viewBox="0 0 61 56" fill="none" xmlns="http://www.w3.org/2000/svg">
<g clip-path="url(#clip0_895_1009)">
<circle cx="52.5" cy="6" r="6" fill="#CB8511"/>
<circle cx="30.5" cy="6" r="6" fill="#CB8511"/>
<circle cx="8.5" cy="6" r="6" fill="#CB8511"/>
<path d="M52.4747 13.8457C50.4217 13.8457 48.4528 14.6613 47.0011 16.113C45.5494 17.5647 44.7338 19.5336 44.7338 21.5866V33.7509H38.0987V21.5866C38.0987 19.5336 37.2832 17.5647 35.8315 16.113C34.3798 14.6613 32.4108 13.8457 30.3578 13.8457C28.3048 13.8457 26.3359 14.6613 24.8842 16.113C23.4325 17.5647 22.6169 19.5336 22.6169 21.5866V33.7509H15.9818V21.5866C15.9818 19.5336 15.1663 17.5647 13.7146 16.113C12.2629 14.6613 10.2939 13.8457 8.24092 13.8457C6.1879 13.8457 4.21897 14.6613 2.76726 16.113C1.31556 17.5647 0.5 19.5336 0.5 21.5866V35.9626C0.5 36.5492 0.733017 37.1117 1.14779 37.5265C1.56256 37.9413 2.12511 38.1743 2.71169 38.1743H11.5585V41.4918C11.5585 43.5449 12.374 45.5138 13.8257 46.9655C15.2774 48.4172 17.2463 49.2327 19.2994 49.2327C21.3524 49.2327 23.3213 48.4172 24.773 46.9655C26.2247 45.5138 27.0403 43.5449 27.0403 41.4918V38.1743H33.6754V41.4918C33.6754 43.5449 34.4909 45.5138 35.9426 46.9655C37.3943 48.4172 39.3633 49.2327 41.4163 49.2327C43.4693 49.2327 45.4382 48.4172 46.8899 46.9655C48.3416 45.5138 49.1572 43.5449 49.1572 41.4918V38.1743H58.004C58.5905 38.1743 59.1531 37.9413 59.5679 37.5265C59.9826 37.1117 60.2156 36.5492 60.2156 35.9626V21.5866C60.2156 20.5701 60.0154 19.5635 59.6264 18.6243C59.2374 17.6851 58.6672 16.8318 57.9484 16.113C57.2296 15.3942 56.3762 14.824 55.437 14.4349C54.4979 14.0459 53.4913 13.8457 52.4747 13.8457ZM49.1572 27.1158V21.5866C49.1572 20.7068 49.5067 19.8629 50.1289 19.2408C50.751 18.6186 51.5949 18.2691 52.4747 18.2691C53.3546 18.2691 54.1984 18.6186 54.8206 19.2408C55.4427 19.8629 55.7923 20.7068 55.7923 21.5866V33.7509H49.1572V27.1158ZM27.0403 27.1158V21.5866C27.0403 20.7068 27.3898 19.8629 28.012 19.2408C28.6341 18.6186 29.478 18.2691 30.3578 18.2691C31.2377 18.2691 32.0815 18.6186 32.7037 19.2408C33.3258 19.8629 33.6754 20.7068 33.6754 21.5866V33.7509H27.0403V27.1158ZM8.24092 18.2691C9.12078 18.2691 9.96461 18.6186 10.5868 19.2408C11.2089 19.8629 11.5585 20.7068 11.5585 21.5866V33.7509H4.92338V21.5866C4.92338 20.7068 5.27291 19.8629 5.89506 19.2408C6.51722 18.6186 7.36105 18.2691 8.24092 18.2691ZM19.2994 44.8094C18.4195 44.8094 17.5757 44.4598 16.9535 43.8377C16.3314 43.2155 15.9818 42.3717 15.9818 41.4918V38.1743H22.6169V41.4918C22.6169 42.3717 22.2674 43.2155 21.6452 43.8377C21.0231 44.4598 20.1792 44.8094 19.2994 44.8094ZM41.4163 44.8094C40.5364 44.8094 39.6926 44.4598 39.0704 43.8377C38.4483 43.2155 38.0987 42.3717 38.0987 41.4918V38.1743H44.7338V41.4918C44.7338 42.3717 44.3843 43.2155 43.7621 43.8377C43.14 44.4598 42.2961 44.8094 41.4163 44.8094ZM25.9344 53.7888C25.9344 54.3754 25.7014 54.938 25.2867 55.3527C24.8719 55.7675 24.3093 56.0005 23.7227 56.0005H14.876C14.2894 56.0005 13.7269 55.7675 13.3121 55.3527C12.8973 54.938 12.6643 54.3754 12.6643 53.7888C12.6643 53.2023 12.8973 52.6397 13.3121 52.2249C13.7269 51.8102 14.2894 51.5771 14.876 51.5771H23.7227C24.3093 51.5771 24.8719 51.8102 25.2867 52.2249C25.7014 52.6397 25.9344 53.2023 25.9344 53.7888ZM48.0513 53.7888C48.0513 54.3754 47.8183 54.938 47.4036 55.3527C46.9888 55.7675 46.4262 56.0005 45.8397 56.0005H36.9929C36.4063 56.0005 35.8438 55.7675 35.429 55.3527C35.0142 54.938 34.7812 54.3754 34.7812 53.7888C34.7812 53.2023 35.0142 52.6397 35.429 52.2249C35.8438 51.8102 36.4063 51.5771 36.9929 51.5771H45.8397C46.4262 51.5771 46.9888 51.8102 47.4036 52.2249C47.8183 52.6397 48.0513 53.2023 48.0513 53.7888Z" fill="black"/>
</g>
<defs>
<clipPath id="clip0_895_1009">
<rect width="59.7156" height="56" fill="white" transform="translate(0.5)"/>
</clipPath>
</defs>
</svg>
