<svg width="25" height="42" viewBox="0 0 25 42" fill="none" xmlns="http://www.w3.org/2000/svg">
<path fill-rule="evenodd" clip-rule="evenodd" d="M12.3179 41.1765C10.4282 41.1765 8.81847 39.873 8.81847 38.2141V38.1549C6.92883 37.6809 5.03907 36.733 3.56941 35.4888C1.2598 33.5336 0 30.9268 0 28.083C0 26.4834 1.53978 25.1206 3.49941 25.1206C5.45905 25.1206 6.99883 26.4834 6.99883 28.083C6.99883 29.3272 7.55873 30.512 8.53861 31.3416C9.51843 32.1118 10.9182 32.6451 12.318 32.6451C13.7878 32.6451 15.1875 32.1118 16.0974 31.3416C17.0772 30.5121 17.7072 29.3272 17.7072 28.083C17.7072 26.898 17.0773 25.7131 16.0974 24.8836C15.1876 24.0542 13.7878 23.5209 12.318 23.5209C9.02857 23.5209 5.94913 22.4545 3.56953 20.4401C1.25992 18.4849 0.000118469 15.8781 0.000118469 13.0342C0.000118469 10.2497 1.25992 7.64282 3.56953 5.62842C5.03931 4.44346 6.92895 3.49551 8.81859 3.02159V2.96235C8.81859 1.30346 10.4284 0 12.318 0C14.2776 0 15.8174 1.30346 15.8174 2.96235V3.02159C17.7771 3.49557 19.5968 4.44346 21.0665 5.62842C23.4461 7.64282 24.7059 10.2497 24.7059 13.0342C24.7059 14.6931 23.0961 15.9966 21.2065 15.9966C19.2468 15.9966 17.7071 14.6931 17.7071 13.0342C17.7071 11.8493 17.0772 10.6643 16.0973 9.83488C15.1874 9.00543 13.7877 8.53141 12.3179 8.53141C10.9181 8.53141 9.5183 9.00539 8.53849 9.83488C7.55866 10.6643 6.99871 11.8493 6.99871 13.0342C6.99871 14.2784 7.55861 15.4633 8.53849 16.2336C9.51832 17.063 10.9181 17.5963 12.3179 17.5963C15.6773 17.5963 18.7567 18.6628 21.0664 20.6179C23.446 22.5731 24.7058 25.2391 24.7058 28.0237C24.7058 30.8083 23.446 33.4744 21.0664 35.4295C19.5966 36.6738 17.7769 37.5624 15.8173 38.0364V38.1549C15.8173 39.873 14.2775 41.1765 12.3179 41.1765ZM3.49941 27.0205C2.79953 27.0205 2.30962 27.4352 2.30962 28.0277C2.30962 30.3383 3.42943 32.4119 5.24908 34.0116C6.57887 35.1966 8.32851 36.026 10.2183 36.3223C10.7782 36.4408 11.1981 36.8555 11.1981 37.3294V38.2182C11.1981 38.8106 11.688 39.2253 12.3179 39.2253C13.0178 39.2253 13.5077 38.8106 13.5077 38.2182V37.3294C13.5077 36.8555 13.9276 36.4408 14.4875 36.3223C16.3072 36.026 18.0569 35.1966 19.4567 34.0116C21.2764 32.4712 22.3262 30.3383 22.3262 28.0277C22.3262 25.717 21.2764 23.6434 19.4567 22.0437C17.5671 20.4441 15.0475 19.5554 12.3179 19.5554C10.2883 19.5554 8.32864 18.9037 6.92886 17.6595C5.45907 16.4153 4.68924 14.7564 4.68924 13.0383C4.68924 11.3201 5.45911 9.66125 6.92886 8.47629C8.32864 7.23208 10.2883 6.5804 12.3179 6.5804C14.3475 6.5804 16.3072 7.23211 17.777 8.47629C19.2467 9.66125 20.0166 11.3201 20.0166 13.0383C20.0166 13.6307 20.5065 14.0455 21.2064 14.0455C21.8362 14.0455 22.3262 13.6307 22.3262 13.0383C22.3262 10.7276 21.2763 8.7133 19.4567 7.05432C18.0569 5.92861 16.3073 5.09917 14.4875 4.74365C13.9276 4.68441 13.5077 4.26968 13.5077 3.73646V2.96626C13.5077 2.37379 13.0178 1.95907 12.3179 1.95907C11.688 1.95907 11.1981 2.3738 11.1981 2.96626V3.85496C11.1981 4.32893 10.7782 4.74366 10.2183 4.80291C8.32862 5.15838 6.57886 5.98786 5.24906 7.11357C3.42942 8.7132 2.30961 10.8461 2.30961 13.1568C2.30961 15.4674 3.42942 17.4817 5.24906 19.1407C7.0687 20.6811 9.5883 21.629 12.3179 21.629C14.3475 21.629 16.3071 22.2808 17.7769 23.5249C19.2467 24.7691 20.0165 26.3688 20.0165 28.0869C20.0165 29.8643 19.2467 31.4639 17.7769 32.7081C16.3072 33.9523 14.3475 34.604 12.3179 34.604C10.2883 34.604 8.32862 33.9523 6.92883 32.7081C5.45905 31.4639 4.68922 29.8643 4.68922 28.0869C4.68922 27.5537 4.19928 27.0205 3.49941 27.0205Z" fill="#201E1F"/>
</svg>
