<svg width="58" height="43" viewBox="0 0 58 43" fill="none" xmlns="http://www.w3.org/2000/svg">
<path d="M55.7059 13.9294L31.9238 0.376307C31.4876 0.129636 30.9951 0 30.4941 0C29.993 0 29.5005 0.129636 29.0644 0.376307L5.26434 13.9317C4.83497 14.1763 4.47621 14.5279 4.22295 14.9522C3.96968 15.3765 3.83052 15.8592 3.819 16.3532C3.819 16.447 3.84134 16.5364 3.84581 16.628C3.83034 16.6814 3.81913 16.7359 3.8123 16.791V29.1222H3.45264C3.20847 29.1221 2.97098 29.2019 2.77652 29.3496C2.58205 29.4973 2.44133 29.7046 2.3759 29.9398L0.689297 36.025C0.643126 36.191 0.635975 36.3654 0.668402 36.5346C0.70083 36.7038 0.771958 36.8632 0.876223 37.0003C0.980488 37.1375 1.11507 37.2486 1.26943 37.3251C1.42379 37.4016 1.59376 37.4414 1.76604 37.4413H8.0947C8.26697 37.4414 8.43694 37.4016 8.59131 37.3251C8.74567 37.2486 8.88025 37.1375 8.98451 37.0003C9.08878 36.8632 9.15991 36.7038 9.19233 36.5346C9.22476 36.3654 9.21761 36.191 9.17144 36.025L7.48484 29.9398C7.4194 29.7046 7.27868 29.4973 7.08422 29.3496C6.88976 29.2019 6.65227 29.1221 6.4081 29.1222H6.04844V19.4405L8.01651 20.7049V28.3359C8.01705 28.823 8.1401 29.3021 8.37432 29.7291C8.60854 30.1562 8.94642 30.5175 9.35685 30.7798L26.5334 41.6656C27.718 42.4218 29.0942 42.8235 30.4997 42.8235C31.9051 42.8235 33.2813 42.4218 34.466 41.6656L51.6335 30.7731C52.0394 30.5095 52.3729 30.1487 52.6039 29.7235C52.8349 29.2982 52.9559 28.822 52.956 28.3381V20.7071L55.831 18.8552C56.2472 18.5872 56.5874 18.2167 56.8189 17.7792C57.0504 17.3417 57.1654 16.8519 57.1528 16.3571C57.1402 15.8623 57.0005 15.3791 56.7471 14.9539C56.4937 14.5287 56.1352 14.1759 55.7059 13.9294ZM6.62479 35.2096H3.23595L4.30376 31.3583H5.55921L6.62479 35.2096ZM50.7176 28.3359C50.7173 28.4461 50.6898 28.5545 50.6376 28.6515C50.5854 28.7485 50.5101 28.8312 50.4183 28.8921L33.2664 39.7757C32.4392 40.3055 31.4775 40.5871 30.4952 40.5871C29.5129 40.5871 28.5512 40.3055 27.724 39.7757L10.5609 28.9011C10.4664 28.8398 10.3884 28.7562 10.3338 28.6576C10.2793 28.559 10.2499 28.4485 10.2482 28.3359V21.9893L26.893 31.1484C27.179 31.3131 27.4778 31.4543 27.7866 31.5706C28.649 31.9128 29.5685 32.0886 30.4963 32.0888C30.7353 32.0888 30.9721 32.0442 31.2089 32.0218C31.4457 31.9995 31.6445 32.0017 31.859 31.9615C32.317 31.8755 32.7658 31.7461 33.1993 31.575C33.5025 31.4599 33.796 31.3209 34.0773 31.1595L50.7266 21.9849L50.7176 28.3359ZM54.618 16.9787L51.2962 19.121L32.9782 29.2205C32.79 29.3283 32.5935 29.4209 32.3907 29.4975C31.1752 29.979 29.8219 29.979 28.6064 29.4975C28.3981 29.4183 28.1964 29.3227 28.0033 29.2116L9.70088 19.1367L6.35002 16.9787C6.255 16.9184 6.17738 16.8343 6.12488 16.7348C6.07237 16.6353 6.04679 16.5238 6.05067 16.4113C6.05294 16.3005 6.084 16.1922 6.14079 16.097C6.19758 16.0018 6.27815 15.9231 6.37459 15.8684L30.1702 2.31534C30.2682 2.25845 30.3796 2.2285 30.493 2.2285C30.6063 2.2285 30.7177 2.25845 30.8158 2.31534L54.589 15.8662C54.6869 15.9215 54.7688 16.0012 54.8268 16.0975C54.8848 16.1938 54.917 16.3035 54.9201 16.4159C54.9233 16.5282 54.8973 16.6395 54.8448 16.7389C54.7922 16.8383 54.7149 16.9225 54.6203 16.9832L54.618 16.9787Z" fill="#201E1F"/>
</svg>
