<svg width="45" height="43" viewBox="0 0 45 43" fill="none" xmlns="http://www.w3.org/2000/svg">
<path d="M24.4467 43H19.9799C18.5852 42.9984 17.248 42.4562 16.2618 41.4924C15.2755 40.5286 14.7208 39.2218 14.7191 37.8588V28.8292H5.47952C4.08338 28.8263 2.74543 28.2823 1.75919 27.3165C0.77295 26.3508 0.218957 25.0422 0.21875 23.6778V19.312C0.220371 17.949 0.77515 16.6422 1.76139 15.6784C2.74762 14.7146 4.08478 14.1724 5.47952 14.1708H14.7191V5.1412C14.7208 3.77815 15.2755 2.47139 16.2618 1.50757C17.248 0.54375 18.5852 0.00158177 19.9799 0H24.4467C25.8429 0.000178379 27.182 0.541555 28.1703 1.50537C29.1585 2.46919 29.7153 3.77674 29.7184 5.1412V14.1708H38.9471C40.3432 14.171 41.6824 14.7124 42.6706 15.6762C43.6589 16.64 44.2157 17.9476 44.2188 19.312V23.6778C44.2171 25.0436 43.6611 26.353 42.6728 27.3188C41.6846 28.2845 40.3446 28.8277 38.9471 28.8292H29.7184V37.8588C29.7153 39.2233 29.1585 40.5308 28.1703 41.4946C27.182 42.4584 25.8429 42.9998 24.4467 43ZM5.47952 16.1597C4.62431 16.1606 3.80439 16.493 3.19967 17.084C2.59495 17.675 2.25481 18.4763 2.25389 19.312V23.6778C2.25348 24.5149 2.59286 25.318 3.19757 25.9109C3.80228 26.5037 4.62295 26.838 5.47952 26.8403H15.7367C15.8703 26.8403 16.0027 26.866 16.1262 26.9159C16.2496 26.9659 16.3618 27.0391 16.4563 27.1315C16.5508 27.2238 16.6258 27.3335 16.6769 27.4541C16.728 27.5748 16.7543 27.7041 16.7543 27.8347V37.8588C16.7552 38.6946 17.0953 39.4959 17.7001 40.0868C18.3048 40.6778 19.1247 41.0102 19.9799 41.0111H24.4467C25.3033 41.0116 26.1252 40.68 26.732 40.089C27.3387 39.498 27.6808 38.696 27.6832 37.8588V27.8347C27.6832 27.7041 27.7095 27.5748 27.7606 27.4541C27.8117 27.3335 27.8867 27.2238 27.9812 27.1315C28.0757 27.0391 28.1879 26.9659 28.3113 26.9159C28.4348 26.8659 28.5672 26.8402 28.7008 26.8403H38.9471C39.8051 26.8394 40.6277 26.5059 41.2345 25.9131C41.8412 25.3202 42.1826 24.5163 42.1836 23.6778V19.312C42.1812 18.4748 41.8391 17.6728 41.2323 17.0818C40.6256 16.4908 39.8037 16.1592 38.9471 16.1597H28.7008C28.5672 16.1597 28.4348 16.1341 28.3113 16.0841C28.1879 16.0341 28.0757 15.9609 27.9812 15.8685C27.8867 15.7762 27.8117 15.6665 27.7606 15.5459C27.7095 15.4252 27.6832 15.2959 27.6832 15.1653V5.1412C27.6808 4.30402 27.3387 3.50195 26.732 2.91097C26.1252 2.32 25.3033 1.98838 24.4467 1.98889H19.9799C19.1247 1.98978 18.3048 2.32219 17.7001 2.91317C17.0953 3.50414 16.7552 4.30543 16.7543 5.1412V15.1653C16.7543 15.2959 16.728 15.4252 16.6769 15.5459C16.6258 15.6665 16.5508 15.7762 16.4563 15.8685C16.3618 15.9609 16.2496 16.0341 16.1262 16.0841C16.0027 16.1341 15.8703 16.1597 15.7367 16.1597H5.47952Z" fill="#201E1F"/>
</svg>
