<svg width="44" height="43" viewBox="0 0 44 43" fill="none" xmlns="http://www.w3.org/2000/svg">
<path d="M0.306202 42.5351C0.381736 42.6249 0.475986 42.6971 0.582353 42.7466C0.68872 42.7962 0.804633 42.8219 0.921975 42.8219H8.47445L8.48226 42.8235H42.9599C43.0773 42.8235 43.1931 42.7978 43.2995 42.7483C43.4058 42.6987 43.5001 42.6266 43.5756 42.5368C43.6511 42.447 43.7062 42.3419 43.7368 42.2286C43.7674 42.1154 43.7729 41.9968 43.753 41.8812C43.7054 41.6093 39.0252 14.5441 39.0645 1.20996C39.065 1.00508 38.9875 0.807694 38.8476 0.658012C38.7077 0.50833 38.516 0.417619 38.3115 0.404361C29.9266 -0.134787 21.5156 -0.134787 13.1307 0.404361C12.9277 0.418408 12.7376 0.508387 12.598 0.656371C12.4585 0.804355 12.3798 0.999479 12.3777 1.20286C12.3766 1.30642 12.09 12.8902 11.5035 19.1515C8.79359 19.1171 6.07981 19.1736 3.38824 19.3469C3.18373 19.3601 2.99194 19.4508 2.85197 19.6005C2.712 19.7501 2.63439 19.9476 2.63495 20.1525C2.65774 27.2629 0.154571 41.7342 0.129003 41.8788C0.108976 41.9945 0.114458 42.1132 0.145066 42.2265C0.175673 42.3399 0.230666 42.4452 0.306202 42.5351ZM37.4576 1.96364C37.4649 2.73292 37.4861 3.5419 37.5195 4.38314C29.6518 3.91206 21.763 3.91257 13.8953 4.38466C13.9285 3.36231 13.9529 2.52042 13.9681 1.96442C21.7908 1.49142 29.6349 1.49116 37.4576 1.96364ZM13.8404 6C21.7521 5.51932 29.6858 5.51923 37.5976 5.99974C38.2851 18.5532 41.2773 36.8771 42.0066 41.2139H20.0755C19.5851 38.2847 17.6624 26.3886 17.6824 20.1525C17.6829 19.9475 17.6053 19.7501 17.4654 19.6004C17.3254 19.4507 17.1336 19.3601 16.9291 19.3469C15.6627 19.2653 14.3908 19.2128 13.1171 19.1773C13.4609 15.4396 13.7009 9.9361 13.8404 6ZM16.0787 20.9078C16.0819 21.0858 16.0907 21.2784 16.0963 21.4628C12.1411 21.2417 8.17657 21.2417 4.22132 21.4628C4.22695 21.2784 4.23581 21.0858 4.23903 20.9078C8.18245 20.6853 12.1353 20.6853 16.0787 20.9078ZM4.14867 23.0776C8.15209 22.8465 12.1655 22.8465 16.1689 23.0776C16.5458 29.4846 17.9582 38.3139 18.4424 41.2123H1.87492C2.35906 38.3139 3.77147 29.4845 4.14867 23.0776Z" fill="#201E1F"/>
</svg>
