<svg width="31" height="39" viewBox="0 0 31 39" fill="none" xmlns="http://www.w3.org/2000/svg">
<path d="M15.2201 8.75065C23.1361 8.75065 29.5534 7.14634 29.5534 5.16732C29.5534 3.1883 23.1361 1.58398 15.2201 1.58398C7.30397 1.58398 0.886719 3.1883 0.886719 5.16732C0.886719 7.14634 7.30397 8.75065 15.2201 8.75065Z" stroke="black" stroke-width="1.5" stroke-linecap="round" stroke-linejoin="round"/>
<path d="M15.2187 20.3971C15.9315 20.3971 16.6151 20.114 17.1191 19.61C17.6231 19.106 17.9062 18.4224 17.9062 17.7096C17.9062 15.918 15.2187 13.2305 15.2187 13.2305C15.2187 13.2305 12.5312 15.918 12.5312 17.7096C12.5313 18.4224 12.8144 19.106 13.3184 19.61C13.8224 20.114 14.506 20.3971 15.2187 20.3971Z" stroke="black" stroke-width="1.5" stroke-linecap="round" stroke-linejoin="round"/>
<path d="M27.7617 6.95898V16.8974C28.903 17.6678 29.5534 18.5564 29.5534 19.5007C29.5534 22.4694 23.1356 24.8757 15.2201 24.8757C7.30447 24.8757 0.886719 22.4694 0.886719 19.5007C0.886719 18.5564 1.53709 17.6678 2.67839 16.8974V6.95898" stroke="black" stroke-width="1.5" stroke-linecap="round" stroke-linejoin="round"/>
<path d="M27.7617 22.1875V29.4384C28.903 30.2088 29.5534 31.0975 29.5534 32.0417C29.5534 35.0105 23.1356 37.4167 15.2201 37.4167C7.30447 37.4167 0.886719 35.0105 0.886719 32.0417C0.886719 31.0975 1.53709 30.2088 2.67839 29.4384V22.1875" stroke="black" stroke-width="1.5" stroke-linecap="round" stroke-linejoin="round"/>
</svg>
