<svg width="38" height="59" viewBox="0 0 38 59" fill="none" xmlns="http://www.w3.org/2000/svg">
<path d="M22.8296 26.6205C23.2053 34.9799 23.6148 44.8705 24.0298 51.6485C25.2692 52.1196 26.088 53.3058 26.0908 54.6321V57.8232C26.0908 58.2662 25.7319 58.6252 25.2888 58.6252H14.2044C13.9913 58.6252 13.7866 58.541 13.6379 58.3896C13.4865 58.2382 13.4052 58.0363 13.4052 57.8232V54.6321C13.408 53.3057 14.224 52.1196 15.4634 51.6485C15.8813 44.8233 16.2878 34.7919 16.6664 26.4554L14.1399 29.739L14.1427 29.7362C13.8539 30.1007 13.4221 30.3195 12.9594 30.3391L1.56792 29.1986C1.02953 29.207 0.530406 28.9265 0.25841 28.4583C-0.0107866 27.9928 -0.007982 27.418 0.266819 26.9552C0.43787 26.6608 0.707067 26.4365 1.02954 26.3187L15.4884 21.9576V21.9548C15.5193 20.348 16.4446 18.8927 17.8888 18.1804L15.8894 13.3433C15.7184 12.9115 15.7436 12.4264 15.9595 12.0169L21.1107 0.762082C21.4641 0.13115 22.2212 -0.154837 22.9026 0.0834846C23.5868 0.321835 23.999 1.01727 23.8812 1.73233L21.9604 18.3711C23.3316 19.218 24.1168 20.7546 23.999 22.3586L29.2062 23.0484V23.0512C29.6661 23.1157 30.0755 23.3793 30.3279 23.7719L37.0644 33.2815C37.4345 33.904 37.3027 34.7004 36.7559 35.1715C36.2063 35.6426 35.3987 35.6538 34.8407 35.1967L22.8296 26.6205ZM18.2813 26.0765C17.8943 34.3318 17.4905 44.4083 17.0727 51.4355H22.4174C22.0024 44.4111 21.593 34.3261 21.206 26.0765H21.2088C20.2638 26.4242 19.2263 26.4242 18.2813 26.0765ZM22.8997 53.0391H16.5932C15.7155 53.0448 15.0061 53.7542 15.0033 54.6319V57.0238H24.4898V54.6319C24.487 53.7542 23.7774 53.042 22.8997 53.0391ZM19.7479 17.7479C19.9778 17.7479 20.2078 17.7675 20.4377 17.804L22.1819 2.21904L17.3699 12.7589L19.4366 17.7615C19.5403 17.7531 19.6413 17.7503 19.7478 17.7503L19.7479 17.7479ZM23.584 23.917V23.9142C23.441 24.2115 23.2643 24.4891 23.0568 24.7442L35.2669 33.4829L28.9734 24.6293L23.584 23.917ZM16.2094 24.4358C16.0272 24.161 15.8757 23.8665 15.7608 23.5581L2.29682 27.5435L12.8944 28.7429L16.2094 24.4358ZM21.6298 20.1342C20.8896 19.4108 19.7959 19.1809 18.8229 19.5454C17.8526 19.9071 17.1796 20.7988 17.0955 21.8336C17.0114 22.8683 17.5302 23.8553 18.4303 24.3713C19.3305 24.8873 20.4465 24.8396 21.2962 24.2451L21.6327 23.9591L21.6299 23.9563C22.6674 22.8963 22.6674 21.1999 21.6299 20.1371L21.6298 20.1342Z" fill="#201E1F"/>
</svg>
