<svg width="72" height="52" viewBox="0 0 72 52" fill="none" xmlns="http://www.w3.org/2000/svg">
<path d="M1.33364 19.2559H70.1771C70.866 19.2559 71.4244 19.7206 71.4244 20.2938C71.4244 20.353 71.4184 20.411 71.407 20.4674L67.2569 50.6811C67.1835 51.2157 66.636 51.609 66.0027 51.6013H5.47164C4.80868 51.6013 4.26654 51.1709 4.2267 50.6276L0.076302 20.4115C-0.00190193 19.842 0.487824 19.3277 1.17226 19.2627C1.22653 19.2575 1.28042 19.2553 1.33364 19.2559ZM68.7809 21.3316H2.71007L6.58276 49.5257H64.9081L68.7809 21.3316Z" fill="#201E1F"/>
<path d="M1.24731 13.4785H70.2188C70.9076 13.4785 71.4661 13.9432 71.4661 14.5163C71.4661 14.5499 71.4641 14.5831 71.4604 14.6159L71.4072 20.2862C71.4018 20.8565 70.8491 21.3198 70.1647 21.3198L1.24733 21.3199C0.558477 21.3199 0 20.8553 0 20.2821V14.5163C0 13.9432 0.558453 13.4785 1.24731 13.4785ZM68.9665 15.5542H2.49464V19.2443H68.9318L68.9665 15.5542Z" fill="#201E1F"/>
<path d="M18.3053 25.0504C17.9717 25.5497 18.1877 26.1796 18.7877 26.4572C19.3877 26.7349 20.1448 26.5551 20.4785 26.0559L35.7416 3.16987L51.0046 26.0559C51.3383 26.5551 52.0954 26.7349 52.6954 26.4572C53.2954 26.1796 53.5115 25.5497 53.1778 25.0504L36.8776 0.609518C36.771 0.413344 36.5903 0.242961 36.3467 0.130497C35.7444 -0.14755 34.985 0.0333033 34.6508 0.53444L18.3053 25.0504Z" fill="#201E1F"/>
<path fill-rule="evenodd" clip-rule="evenodd" d="M19.3579 23.6641C20.604 23.6641 21.6142 24.5046 21.6142 25.5414C21.6142 26.5782 20.604 27.4187 19.3579 27.4187C18.1118 27.4187 17.1016 26.5782 17.1016 25.5414C17.1016 24.5046 18.1118 23.6641 19.3579 23.6641Z" fill="#201E1F"/>
<path fill-rule="evenodd" clip-rule="evenodd" d="M52.0844 23.6641C53.3305 23.6641 54.3408 24.5046 54.3408 25.5414C54.3408 26.5782 53.3306 27.4187 52.0844 27.4187C50.8383 27.4187 49.8281 26.5782 49.8281 25.5414C49.8281 24.5046 50.8383 23.6641 52.0844 23.6641Z" fill="#201E1F"/>
</svg>
