<svg width="1440" height="1024" viewBox="0 0 1440 1024" fill="none" xmlns="http://www.w3.org/2000/svg">
<path d="M439.562 352.573C433.183 352.573 429.789 349.919 428.08 347.648C425.401 344.127 424.89 339.279 426.549 333.282L427.748 328.945C435.582 300.545 439.154 287.583 479.546 263.368C490.442 256.81 502.001 253.34 512.922 253.34C528.078 253.34 540.249 260.331 543.898 271.125C545.735 276.56 547.751 290.976 526.802 306.975C502.792 325.296 459.72 352.573 439.562 352.573ZM438.465 339.789C438.695 339.789 439.052 339.814 439.562 339.814C452.32 339.814 487.992 320.524 519.071 296.82C529.073 289.19 533.845 281.127 531.829 275.207C529.992 269.772 522.388 266.098 512.947 266.098C506.951 266.098 497.408 267.527 486.129 274.289C450.126 295.875 447.6 305.061 440.072 332.313L438.848 336.701C438.388 338.309 438.337 339.304 438.337 339.789C438.388 339.789 438.414 339.789 438.465 339.789Z" fill="#D1D1D1" fill-opacity="0.05"/>
<path d="M355.644 410.413C347.402 410.413 341.559 407.989 338.293 403.217C334.644 397.884 334.746 390.536 338.548 380.788C356.767 334.298 403.691 275.381 405.656 272.88C440.46 236.009 499.479 198.296 538.647 198.296C563.5 198.296 593.507 208.758 602.846 228.711C606.52 236.596 608.306 249.073 595.956 263.822C592.716 267.675 589.169 272.038 585.342 276.758C557.682 310.925 515.835 362.544 466.589 377.165C454.392 380.788 440.307 385.866 426.681 390.765C398.741 400.87 372.281 410.413 355.644 410.413ZM538.672 211.029C503.434 211.029 447.197 247.466 415.301 281.224C415.174 281.402 367.943 340.753 350.439 385.407C348.066 391.48 348.091 394.899 348.831 395.996C349.367 396.787 351.459 397.629 355.644 397.629C370.035 397.629 396.649 388.035 422.395 378.747C436.199 373.771 450.437 368.643 462.991 364.917C508.461 351.445 548.777 301.662 575.467 268.695C579.32 263.924 582.918 259.51 586.184 255.58C592.741 247.772 594.4 240.704 591.287 234.07C585.367 221.388 561.765 211.029 538.672 211.029Z" fill="#D1D1D1" fill-opacity="0.05"/>
<path d="M291.948 496.915C281.741 496.915 274.087 493.726 269.136 487.474C262.196 478.671 261.201 464.382 266.125 443.765L266.559 441.979C288.452 350.452 297.51 312.586 378.55 245.861C473.802 167.424 525.269 142.239 598.832 138.156C627.232 136.523 647.874 148.235 657.315 170.434C674.615 211.056 648.844 275.817 591.662 335.397C503.223 427.536 484.927 432.793 436.089 446.801C431.241 448.205 426.061 449.685 420.499 451.343C406.286 455.604 389.395 463.055 371.508 470.965C342.572 483.723 312.642 496.915 291.948 496.915ZM603.757 150.787C602.379 150.787 600.975 150.812 599.547 150.889C529.198 154.793 479.441 179.289 386.664 255.684C308.942 319.679 300.776 353.794 278.986 444.939L278.552 446.725C273.678 467.061 276.204 475.839 279.164 479.59C281.588 482.677 285.773 484.183 291.948 484.183C309.962 484.183 338.643 471.526 366.379 459.304C384.623 451.241 401.872 443.637 416.85 439.146C422.489 437.462 427.694 435.957 432.594 434.553C479.033 421.234 496.41 416.233 582.502 326.569C647.696 258.67 657.239 202.738 645.629 175.461C638.714 159.309 624.272 150.787 603.757 150.787Z" fill="#D1D1D1" fill-opacity="0.05"/>
<path d="M196.572 622.015C189.708 622.015 184.196 619.693 180.139 615.151C172.51 606.577 170.571 590.426 173.76 562.74C186.799 451.005 249.314 332.558 305.526 264.736C356.431 203.293 419.635 140.37 536.423 96.4305C592.431 75.354 655.661 53.8184 699.982 53.8184C724.35 53.8184 741.37 60.5036 750.632 73.67C761.783 89.4901 761.4 113.322 749.458 146.544C697.431 291.375 584.292 464.86 422.646 517.449C360.59 537.632 308.435 567.435 270.365 589.201C237.117 608.261 213.055 622.015 196.572 622.015ZM699.982 66.5765C657.702 66.5765 595.85 87.704 540.914 108.372C426.933 151.265 365.158 212.785 315.35 272.876C260.363 339.243 199.174 455.062 186.467 564.22C183.814 586.981 184.885 601.245 189.682 606.628C190.754 607.853 192.489 609.231 196.572 609.231C209.662 609.231 233.672 595.503 264.088 578.127C302.643 556.081 355.462 525.895 418.768 505.303C576.177 454.067 688.832 277.698 737.491 142.232C747.749 113.603 748.693 93.0113 740.221 80.9932C733.485 71.4246 719.962 66.5765 699.982 66.5765Z" fill="#D1D1D1" fill-opacity="0.05"/>
<path d="M-18.606 899.842C-19.8818 899.842 -21.1831 899.46 -22.3058 898.669C-25.1892 896.627 -25.8526 892.647 -23.8368 889.764C46.7922 790.02 136.023 712.732 241.405 660.04C297.388 632.049 344.031 611.177 385.215 592.754C463.881 557.567 520.757 532.153 576.995 485.611C664.694 412.992 764.361 290.693 789.316 181.151C796.511 149.587 801.359 124.097 805.621 101.617C816.669 43.2356 822.742 11.0851 852.647 -27.8017C868.085 -47.883 890.922 -82.9424 915.086 -120.069C937.872 -155.026 961.372 -191.182 981.632 -219.352C983.699 -222.21 987.654 -222.848 990.563 -220.807C993.395 -218.74 994.058 -214.759 992.017 -211.902C971.936 -183.987 948.461 -147.958 925.777 -113.128C901.485 -75.7978 878.495 -40.5088 862.752 -20.0448C834.684 16.418 828.815 47.5223 818.149 103.964C813.862 126.572 809.04 152.165 801.768 183.958C774.363 304.114 667.909 426.822 585.109 495.384C527.519 543.048 470.005 568.769 390.394 604.364C349.364 622.71 302.822 643.506 247.095 671.395C143.601 723.142 55.9526 799.079 -13.4262 897.087C-14.651 898.898 -16.6157 899.842 -18.606 899.842Z" fill="#D1D1D1" fill-opacity="0.05"/>
<path d="M-18.3292 820.588C-19.6816 820.588 -21.0084 820.154 -22.1822 819.286C-24.989 817.168 -25.5503 813.162 -23.4069 810.356C-13.5832 797.317 -4.75455 785.758 3.30859 775.169C36.9646 731.051 57.2755 704.387 85.1903 660.32C113.666 615.36 131.86 549.452 149.466 485.737C162.811 437.41 175.416 391.761 191.746 358.233C233.491 272.549 294.577 165.457 397.101 97.0992C450.864 61.2743 503.53 51.1443 554.46 41.3716C604.957 31.6754 652.672 22.5151 701.842 -9.83955C765.607 -51.7883 822.1 -122.596 876.782 -191.082C884.13 -200.293 891.377 -209.377 898.573 -218.282C900.767 -221.038 904.773 -221.446 907.554 -219.226C910.284 -217.032 910.718 -213 908.498 -210.244C901.328 -201.365 894.082 -192.281 886.733 -183.095C834.042 -117.084 774.283 -42.2197 708.833 0.826279C657.546 34.5588 606.36 44.4081 556.833 53.9257C507.153 63.4688 455.763 73.3435 404.144 107.739C304.171 174.388 244.233 279.617 203.178 363.846C187.357 396.303 174.906 441.416 161.714 489.157C143.878 553.789 125.404 620.591 95.9327 667.184C67.7117 711.71 47.2731 738.527 13.413 782.951C5.34989 793.515 -3.45321 805.074 -13.277 818.062C-14.5018 819.72 -16.39 820.588 -18.3292 820.588Z" fill="#D1D1D1" fill-opacity="0.05"/>
<path d="M-17.4071 1027.7C-18.5809 1027.7 -19.7546 1027.37 -20.8008 1026.73C-23.7862 1024.84 -24.6792 1020.89 -22.791 1017.93C36.024 924.384 123.723 801.829 207.493 749.215C250.003 722.525 321.832 690.987 397.896 657.56C529.636 599.689 678.958 534.112 727.107 472.72C813.862 361.954 863.542 131.185 880.842 37.1065C899.214 -62.5601 981.963 -148.346 1060.48 -219.102C1063.08 -221.501 1067.14 -221.271 1069.48 -218.643C1071.86 -216.015 1071.63 -211.983 1069 -209.636C992.068 -140.308 911.079 -56.5127 893.396 39.403C871.656 157.416 822.487 371.625 737.135 480.579C687.021 544.498 536.143 610.789 403.025 669.247C327.394 702.469 255.974 733.828 214.255 760.034C132.527 811.372 46.1029 932.32 -12.0232 1024.71C-13.2224 1026.65 -15.2893 1027.7 -17.4071 1027.7Z" fill="#D1D1D1" fill-opacity="0.05"/>
<path d="M-17.4057 1133.52C-18.656 1133.52 -19.9318 1133.14 -21.029 1132.37C-23.9378 1130.38 -24.6523 1126.43 -22.6365 1123.49C73.1261 985.193 165.214 856.821 239.314 805.507C278.277 778.511 342.91 752.102 417.749 721.482C543.825 669.914 686.742 611.482 747.241 532.738C840.885 410.873 882.86 239.046 921.006 58.8755C938.97 -26.1702 1005.47 -117.238 1124.22 -219.532C1126.87 -221.803 1130.93 -221.523 1133.23 -218.869C1135.52 -216.215 1135.22 -212.184 1132.56 -209.862C1016 -109.455 950.886 -20.6842 933.484 61.5292C895.056 243.205 852.648 416.537 757.396 540.521C694.779 621.994 550.178 681.141 422.623 733.322C351.56 762.41 284.426 789.84 246.611 815.995C174.273 866.108 82.9499 993.486 -12.1238 1130.79C-13.3996 1132.57 -15.3899 1133.52 -17.4057 1133.52Z" fill="#D1D1D1" fill-opacity="0.05"/>
<path d="M-17.8375 715.588C-19.1899 715.588 -20.5422 715.154 -21.6904 714.286C-24.4972 712.143 -25.0331 708.162 -22.8897 705.33L-16.2555 696.603C47.5352 612.834 64.6567 590.328 95.1486 485.533C98.9505 472.494 102.548 459.915 106.044 447.743C142.175 321.489 166.058 238.076 264.628 124.962C375.113 -1.77695 531.655 -19.3576 598.483 -26.8849C649.515 -32.6261 773.626 -168.245 820.346 -219.329C822.771 -221.906 826.802 -222.059 829.379 -219.737C831.982 -217.364 832.135 -213.332 829.788 -210.704C748.722 -122.137 649.388 -19.7659 599.937 -14.2033C534.564 -6.85464 381.467 10.3434 274.273 133.332C177.566 244.328 154.015 326.643 118.343 451.239C114.847 463.436 111.249 476.041 107.447 489.08C76.2921 596.146 57.2059 621.203 -6.07448 704.309L-12.7342 713.036C-14.01 714.695 -15.8983 715.588 -17.8375 715.588Z" fill="#D1D1D1" fill-opacity="0.05"/>
<path d="M-15.2627 1237.96C-16.5896 1237.96 -17.9165 1237.55 -19.0392 1236.71C-21.8715 1234.64 -22.4839 1230.64 -20.4171 1227.78C7.01292 1190.48 33.4988 1151.54 59.1172 1113.85C130.359 1009.08 197.62 910.103 276.771 856.263C330.993 819.392 401.035 793.698 475.186 766.472C581.537 727.483 691.538 687.142 747.138 611.792C755.482 600.514 763.596 589.644 771.455 579.106C853.337 469.36 907.431 396.843 931.57 235.095C952.059 97.8687 1086.53 -97.1522 1208.75 -218.839C1211.25 -221.314 1215.31 -221.314 1217.79 -218.814C1220.29 -216.313 1220.29 -212.282 1217.79 -209.781C1097.04 -89.5738 964.256 102.487 944.175 236.983C919.551 401.921 864.717 475.433 781.661 586.735C773.802 597.248 765.714 608.092 757.396 619.37C699.499 697.782 587.687 738.812 479.574 778.439C406.19 805.384 336.836 830.798 283.941 866.802C206.805 919.263 140.182 1017.25 69.6554 1120.97C43.986 1158.73 17.4236 1197.82 -10.134 1235.31C-11.3843 1237.07 -13.298 1237.96 -15.2627 1237.96Z" fill="#D1D1D1" fill-opacity="0.05"/>
<path d="M590.442 1244.54C588.86 1244.54 587.278 1243.98 586.053 1242.8C583.501 1240.35 583.399 1236.32 585.823 1233.77L598.556 1220.37C680.336 1134.23 750.965 1059.85 824.834 1029.41C844.38 1021.4 865.405 1014.02 885.767 1006.95C968.95 977.994 1054.97 948.012 1092.42 856.485C1112.1 808.362 1136.92 716.401 1163.21 619.005C1201.56 476.982 1245.04 315.974 1287.75 230.571C1322.3 161.473 1378.1 67.7517 1428.14 -14.7679C1429.95 -17.7789 1433.88 -18.6974 1436.92 -16.9113C1439.93 -15.0741 1440.87 -11.1447 1439.06 -8.15926C1389.15 74.1818 1333.5 167.571 1299.18 236.287C1257.05 320.541 1213.73 480.886 1175.56 622.348C1149.15 720.101 1124.22 812.47 1104.24 861.308C1064.59 958.193 975.84 989.119 889.977 1019.02C868.875 1026.37 848.922 1033.31 829.759 1041.22C758.39 1070.62 688.628 1144.08 607.844 1229.15L595.111 1242.55C593.81 1243.87 592.126 1244.54 590.442 1244.54Z" fill="#D1D1D1" fill-opacity="0.05"/>
<path d="M503.122 1243.09C501.54 1243.09 499.933 1242.51 498.708 1241.33C496.157 1238.88 496.08 1234.85 498.53 1232.3C621.901 1103.82 701.588 1032.63 749.38 1008.24C775.943 994.665 806.792 986.449 839.427 977.799C890.97 964.122 944.222 949.961 984.41 913.013C1050.88 851.825 1106.17 684.923 1129.45 555.734C1153.02 424.861 1262.46 98.049 1363.4 -21.9796C1386.04 -48.8737 1407.9 -76.4568 1428.5 -103.989C1430.61 -106.821 1434.65 -107.357 1437.43 -105.29C1440.23 -103.172 1440.85 -99.1918 1438.73 -96.3595C1418.01 -68.6233 1395.96 -40.8361 1373.2 -13.7633C1273.61 104.658 1165.37 428.255 1142.02 557.954C1118.42 689.185 1061.75 859.2 993.06 922.352C950.601 961.443 895.767 976.039 842.719 990.098C810.747 998.595 780.561 1006.61 755.172 1019.57C709.371 1042.97 628.433 1115.43 507.741 1241.1C506.491 1242.45 504.807 1243.09 503.122 1243.09Z" fill="#D1D1D1" fill-opacity="0.05"/>
<path d="M69.6817 1243.92C68.4824 1243.92 67.2832 1243.59 66.186 1242.88C63.2516 1240.96 62.4096 1237.03 64.3233 1234.05C133.37 1128.11 260.901 944.312 339.108 903.971C365.007 890.651 396.06 876.668 428.951 861.844C516.727 822.293 625.962 773.072 730.375 696.039C866.172 595.836 905.927 484.305 944.354 376.422L950.606 358.892C960.174 332.279 969.105 305.283 978.546 276.704C1008.09 187.219 1038.66 94.6714 1088.98 18.7094C1127.03 -38.7787 1207.32 -136.583 1284.21 -219.153C1286.58 -221.73 1290.64 -221.884 1293.21 -219.485C1295.82 -217.086 1295.94 -213.055 1293.54 -210.452C1217.1 -128.341 1137.33 -31.2005 1099.6 25.7774C1050.25 100.285 1019.96 192.016 990.641 280.71C981.608 308.115 972.218 336.438 962.598 363.205L956.347 380.709C919.093 485.274 876.889 603.797 737.927 706.322C632.418 784.198 522.493 833.699 434.156 873.505C401.419 888.253 370.493 902.185 344.9 915.377C266.54 955.769 130.053 1156.56 75.0401 1241.02C73.8153 1242.9 71.774 1243.92 69.6817 1243.92Z" fill="#D1D1D1" fill-opacity="0.05"/>
<path d="M396.674 1244.89C394.99 1244.89 393.306 1244.23 392.03 1242.9C389.606 1240.33 389.734 1236.29 392.285 1233.87L398.282 1228.18C507.951 1124.25 644.437 994.884 697.639 973.246C729.253 960.361 772.274 948.572 813.916 937.167C865.689 922.954 919.273 908.257 939.558 893.789C973.572 869.497 1062.39 704.254 1075.97 614.692C1088.47 532.045 1112.64 410.485 1156.52 300.587C1198.68 195.204 1282.57 2.96466 1328.25 -64.2197C1345.93 -90.2208 1379.71 -133.241 1428.68 -192.082C1430.98 -194.761 1434.98 -195.118 1437.69 -192.898C1440.37 -190.653 1440.75 -186.621 1438.5 -183.891C1389.82 -125.382 1356.26 -82.6935 1338.84 -57.0241C1293.7 9.31821 1210.34 200.435 1168.39 305.332C1124.91 414.083 1100.97 534.622 1088.57 616.58C1075.23 704.79 986.789 875.723 946.984 904.174C924.836 919.994 872.604 934.334 817.284 949.465C776.025 960.769 733.361 972.481 702.461 985.086C651.48 1005.83 515.963 1134.28 407.059 1237.49L401.063 1243.18C399.813 1244.31 398.256 1244.89 396.674 1244.89Z" fill="#D1D1D1" fill-opacity="0.05"/>
<path d="M164.269 1243.95C163.019 1243.95 161.743 1243.57 160.62 1242.8C157.737 1240.81 156.997 1236.83 159.013 1233.92C258.909 1089.78 370.798 984.883 482.534 930.661L512.566 916.142C620.755 863.885 722.948 814.536 808.045 739.136C891.508 665.215 956.498 537.48 1001.2 359.479C1006.15 339.678 1010.59 321.613 1014.68 304.951C1043.36 188.214 1055.22 139.911 1114.44 56.4987C1155.09 -0.734329 1253.94 -132.143 1337.18 -219.817C1339.63 -222.369 1343.66 -222.471 1346.21 -220.047C1348.79 -217.623 1348.86 -213.591 1346.46 -211.014C1263.71 -123.876 1165.32 6.89507 1124.88 63.8729C1067.03 145.295 1056.16 189.592 1027.1 307.987C1022.99 324.649 1018.55 342.74 1013.58 362.592C968.261 543.119 901.97 673.048 816.516 748.704C730.067 825.253 627.134 874.959 518.129 927.624L488.122 942.118C411.573 979.269 294.147 1061.33 169.5 1241.19C168.275 1243.01 166.285 1243.95 164.269 1243.95Z" fill="#D1D1D1" fill-opacity="0.05"/>
<path d="M282.533 1243.7C281.181 1243.7 279.854 1243.26 278.706 1242.42C275.899 1240.3 275.338 1236.3 277.456 1233.46C320.476 1176.33 406.747 1071.46 501.488 1011.19C621.338 934.923 680.562 908.641 792.731 861.002C898.343 816.17 944.732 739.366 993.442 613.316C1022.3 538.63 1044.63 450.114 1066.19 364.532C1078.59 315.362 1090.3 268.923 1102.88 226.234C1135.21 116.795 1247.46 -58.247 1388.87 -219.739C1391.22 -222.393 1395.22 -222.648 1397.9 -220.326C1400.55 -218.004 1400.81 -213.973 1398.49 -211.319C1238.93 -29.1329 1141.21 141.545 1115.15 229.857C1102.6 272.316 1090.94 318.628 1078.56 367.671C1056.88 453.635 1034.47 542.534 1005.36 617.909C963.205 727.016 918.475 821.503 797.707 872.765C686.201 920.098 627.335 946.227 508.352 1021.96C439.382 1065.82 361.021 1143.67 287.662 1241.14C286.361 1242.83 284.473 1243.7 282.533 1243.7Z" fill="#D1D1D1" fill-opacity="0.05"/>
<path d="M906.815 1244.42C905.999 1244.42 905.182 1244.27 904.366 1243.93C901.125 1242.58 899.569 1238.86 900.896 1235.59C910.847 1211.58 916.614 1189.33 922.202 1167.82C931.285 1132.78 939.884 1099.69 964.916 1066.85C988.723 1035.62 1019.52 1016.43 1049.3 997.931C1087.83 973.946 1124.24 951.287 1143.2 904.618C1156.01 873.105 1172.41 813.321 1191.4 744.12C1223.98 625.393 1264.55 477.603 1311.76 379.008C1335.13 330.17 1355.31 281.357 1374.83 234.127C1392.75 190.723 1409.69 149.744 1427.86 111.7C1429.41 108.51 1433.27 107.209 1436.35 108.689C1439.54 110.22 1440.9 113.996 1439.37 117.186C1421.35 154.924 1404.48 195.75 1386.62 238.975C1367.03 286.333 1346.79 335.324 1323.29 384.494C1276.6 482.068 1236.21 629.221 1203.72 747.489C1184.61 817.072 1168.1 877.162 1155.04 909.389C1134.52 959.886 1094.64 984.739 1056.06 1008.75C1027.25 1026.69 997.475 1045.24 975.122 1074.58C951.622 1105.38 943.737 1135.8 934.577 1171.03C928.887 1192.95 922.993 1215.64 912.761 1240.49C911.689 1242.94 909.29 1244.42 906.815 1244.42Z" fill="#D1D1D1" fill-opacity="0.05"/>
<path d="M950.858 1244.1C950.271 1244.1 949.659 1244.03 949.072 1243.85C945.704 1242.85 943.764 1239.31 944.734 1235.91C948.613 1222.54 951.573 1210.65 954.226 1199.81C965.377 1154.59 972.062 1127.27 1022.43 1091.54C1051.11 1071.21 1079.1 1058.27 1103.78 1046.89C1151.16 1025.02 1188.62 1007.75 1207.14 950.438C1215.1 925.814 1225.23 880.778 1236.95 828.597C1268.33 688.641 1315.79 477.085 1384.4 378.107C1399.94 355.653 1414.62 331.642 1427.94 306.713C1429.59 303.574 1433.45 302.426 1436.59 304.085C1439.67 305.743 1440.85 309.596 1439.21 312.709C1425.64 338.072 1410.74 362.517 1394.89 385.38C1327.71 482.316 1280.6 692.391 1249.4 831.379C1237.15 886.034 1227.48 929.182 1219.31 954.367C1199.05 1016.98 1157.39 1036.2 1109.14 1058.47C1084.97 1069.65 1057.54 1082.31 1029.83 1101.95C983.366 1134.95 977.42 1159.06 966.627 1202.87C963.948 1213.84 960.937 1225.91 957.008 1239.51C956.165 1242.29 953.639 1244.1 950.858 1244.1Z" fill="#D1D1D1" fill-opacity="0.05"/>
<path d="M1023.99 1244.22C1023.43 1244.22 1022.82 1244.14 1022.23 1243.96C1018.84 1242.99 1016.9 1239.44 1017.87 1236.05C1038.23 1165.29 1061.55 1134.6 1121.85 1099.28C1205.82 1050.01 1254.71 996.197 1271.24 934.728C1276.35 915.693 1282.24 883.185 1289.69 842.079C1308.62 737.538 1337.23 579.593 1383.97 487.632C1397.83 460.355 1412.14 434.278 1427.68 407.868C1429.47 404.806 1433.37 403.837 1436.44 405.623C1439.47 407.409 1440.47 411.313 1438.71 414.349C1423.29 440.504 1409.11 466.377 1395.35 493.424C1349.45 583.701 1321.05 740.575 1302.27 844.35C1294.77 885.763 1288.85 918.5 1283.59 938.045C1266.11 1002.93 1215.34 1059.27 1128.33 1110.31C1071.45 1143.63 1049.4 1172.62 1030.14 1239.6C1029.32 1242.4 1026.75 1244.22 1023.99 1244.22Z" fill="#D1D1D1" fill-opacity="0.05"/>
<path d="M1084.87 1244.11C1083.9 1244.11 1082.91 1243.88 1081.99 1243.42C1078.85 1241.84 1077.6 1237.99 1079.21 1234.85C1097.3 1199.31 1124.29 1178.46 1159.25 1158.1C1225.31 1119.57 1296.3 1067.34 1322.04 972.161C1332.15 934.805 1339.22 882.318 1346.72 826.744C1358.79 737.233 1372.46 635.831 1402.68 575.357C1409.92 560.839 1418.5 545.299 1428.11 529.25C1429.93 526.213 1433.8 525.193 1436.89 527.055C1439.9 528.867 1440.87 532.796 1439.09 535.807C1429.62 551.602 1421.2 566.835 1414.11 581.073C1384.84 639.607 1371.29 739.937 1359.35 828.453C1351.8 884.436 1344.68 937.331 1334.37 975.504C1307.42 1075.12 1233.99 1129.26 1165.71 1169.12C1125.62 1192.49 1105.26 1211.89 1090.61 1240.64C1089.44 1242.86 1087.19 1244.11 1084.87 1244.11Z" fill="#D1D1D1" fill-opacity="0.05"/>
<path d="M1172.64 1243.29C1170.91 1243.29 1169.15 1242.58 1167.87 1241.15C1165.52 1238.52 1165.75 1234.49 1168.41 1232.14C1179.15 1222.55 1193.39 1211.04 1211.48 1196.47L1227.96 1183.15C1324.7 1104.79 1364.73 1072.36 1369.94 978.814C1373.02 923.087 1397.75 800.66 1426.2 700.049C1427.14 696.681 1430.54 694.588 1434.08 695.66C1437.48 696.604 1439.44 700.151 1438.47 703.545C1410.25 803.364 1385.76 924.592 1382.69 979.503C1377.16 1078.71 1332.91 1114.54 1235.98 1193.05L1219.49 1206.37C1201.6 1220.84 1187.44 1232.27 1176.91 1241.66C1175.68 1242.78 1174.15 1243.29 1172.64 1243.29Z" fill="#D1D1D1" fill-opacity="0.05"/>
<path d="M1276.09 1244.28C1274.74 1244.28 1273.41 1243.85 1272.26 1243.01C1269.45 1240.89 1268.87 1236.88 1270.99 1234.05C1288.54 1210.76 1307.7 1192.43 1325 1182.53C1365.37 1159.42 1418.24 1085.93 1423.37 1029.36C1423.78 1025.02 1424.19 1019.74 1424.67 1013.69C1424.93 1010.2 1427.32 1007.21 1431.53 1007.85C1435.06 1008.13 1437.66 1011.19 1437.38 1014.71C1436.89 1020.81 1436.48 1026.15 1436.08 1030.53C1430.51 1091.77 1375.19 1168.48 1331.33 1193.63C1315.51 1202.69 1297.73 1219.79 1281.19 1241.76C1279.94 1243.42 1278.03 1244.28 1276.09 1244.28Z" fill="#D1D1D1" fill-opacity="0.05"/>
<path d="M-15.5681 592.044C-16.6397 592.044 -17.737 591.763 -18.7321 591.202C-21.794 589.467 -22.8657 585.563 -21.1051 582.501C28.3965 495.95 52.1266 425.346 77.2347 350.584C83.8179 330.962 90.5541 310.931 97.9028 290.085C146.588 152.195 236.175 0.781082 326.605 -26.6234C357.633 -36.0389 393.815 -40.4532 432.115 -45.1738C503.867 -53.9769 578.068 -63.1117 629.101 -105.596C671.534 -140.987 718.918 -183.293 755.865 -218.786C758.366 -221.21 762.398 -221.134 764.898 -218.608C767.348 -216.056 767.246 -212.025 764.694 -209.575C727.568 -173.903 679.929 -131.368 637.291 -95.798C583.375 -50.8894 507.286 -41.5504 433.697 -32.5177C395.958 -27.8737 360.312 -23.4849 330.356 -14.4266C244.188 11.6766 157.585 159.441 109.972 294.32C102.623 315.091 95.938 335.07 89.3548 354.641C64.0427 430.016 40.1085 501.206 -10.031 588.829C-11.2048 590.896 -13.3481 592.044 -15.5681 592.044Z" fill="#D1D1D1" fill-opacity="0.05"/>
<path d="M-17.2788 440.777C-18.2229 440.777 -19.167 440.573 -20.0601 440.139C-23.2241 438.609 -24.5509 434.807 -23.0199 431.617C14.3614 354.303 43.5775 279.795 69.349 214.04C79.4534 188.268 88.9455 164.079 98.0548 141.956L100.479 136.088C147.123 22.7952 183.943 -66.6903 282.155 -80.3415L305.502 -83.531C398.56 -96.1616 526.039 -113.436 583.808 -159.212C601.44 -173.17 622.159 -192.715 647.139 -218.946C649.615 -221.498 653.621 -221.6 656.172 -219.176C658.724 -216.752 658.826 -212.72 656.402 -210.143C631.013 -183.478 609.86 -163.55 591.744 -149.21C531.219 -101.265 401.775 -83.7097 307.237 -70.875L283.915 -67.6855C192.975 -55.0294 159.115 27.1841 112.267 140.961L109.843 146.83C100.785 168.876 91.3185 192.989 81.2396 218.709C55.3661 284.669 26.0479 359.431 -11.5376 437.18C-12.6348 439.451 -14.9058 440.777 -17.2788 440.777Z" fill="#D1D1D1" fill-opacity="0.05"/>
<path d="M-17.0233 297.251C-17.8654 297.251 -18.7329 297.072 -19.575 296.715C-22.8155 295.311 -24.2955 291.535 -22.8921 288.32C7.93153 217.436 35.4891 143.107 59.7806 77.5046C74.478 37.7758 87.1851 3.48186 98.0551 -22.9785C143.142 -132.801 247.555 -144.691 341.888 -147.217C389.374 -148.493 453.19 -171.866 516.956 -211.314C519.916 -213.228 523.896 -212.233 525.733 -209.247C527.596 -206.262 526.677 -202.332 523.666 -200.47C458.039 -159.848 391.926 -135.786 342.246 -134.459C247.784 -131.933 152.022 -120.859 109.895 -18.1304C99.1267 8.12584 86.4451 42.3432 71.7733 81.9445C48.63 144.434 19.8221 222.207 -11.1546 293.398C-12.2263 295.822 -14.5738 297.251 -17.0233 297.251Z" fill="#D1D1D1" fill-opacity="0.05"/>
<path d="M-13.9853 76.3742C-14.9294 76.3742 -15.8735 76.1701 -16.7666 75.7363C-19.9561 74.1798 -21.2575 70.3779 -19.7265 67.2139C2.42162 21.5143 19.4665 -25.5888 30.9488 -72.8194C56.7458 -178.865 126.227 -190.169 229.261 -195.298C261.565 -196.931 298.819 -204.636 340.053 -218.16C343.37 -219.308 346.993 -217.446 348.091 -214.103C349.188 -210.76 347.376 -207.163 344.033 -206.065C301.727 -192.159 263.326 -184.274 229.899 -182.59C116.275 -176.926 65.2427 -160.009 43.3242 -69.834C31.6378 -21.7359 14.2612 26.2348 -8.26971 72.7509C-9.36691 75.0474 -11.6123 76.3742 -13.9853 76.3742Z" fill="#D1D1D1" fill-opacity="0.05"/>
</svg>
