<svg width="111" height="39" viewBox="0 0 111 39" fill="none" xmlns="http://www.w3.org/2000/svg">
<rect x="0.5" y="0.5" width="110" height="38" rx="19" fill="white"/>
<rect x="0.5" y="0.5" width="110" height="38" rx="19" stroke="#B4B9C9"/>
<g clip-path="url(#clip0_1315_5646)">
<path d="M32.1667 27.5C31.5185 27.5 30.9676 27.2667 30.5139 26.8C30.0602 26.3333 29.8333 25.7667 29.8333 25.1C29.8333 25.02 29.8528 24.8333 29.8917 24.54L24.4278 21.26C24.2204 21.46 23.9806 21.6168 23.7083 21.7304C23.4361 21.844 23.1444 21.9005 22.8333 21.9C22.1852 21.9 21.6343 21.6667 21.1806 21.2C20.7269 20.7333 20.5 20.1667 20.5 19.5C20.5 18.8333 20.7269 18.2667 21.1806 17.8C21.6343 17.3333 22.1852 17.1 22.8333 17.1C23.1444 17.1 23.4361 17.1568 23.7083 17.2704C23.9806 17.384 24.2204 17.5405 24.4278 17.74L29.8917 14.46C29.8657 14.3667 29.8497 14.2768 29.8434 14.1904C29.8372 14.104 29.8339 14.0072 29.8333 13.9C29.8333 13.2333 30.0602 12.6667 30.5139 12.2C30.9676 11.7333 31.5185 11.5 32.1667 11.5C32.8148 11.5 33.3657 11.7333 33.8194 12.2C34.2731 12.6667 34.5 13.2333 34.5 13.9C34.5 14.5667 34.2731 15.1333 33.8194 15.6C33.3657 16.0667 32.8148 16.3 32.1667 16.3C31.8556 16.3 31.5639 16.2432 31.2917 16.1296C31.0194 16.016 30.7796 15.8595 30.5722 15.66L25.1083 18.94C25.1343 19.0333 25.1506 19.1235 25.1573 19.2104C25.1641 19.2973 25.1672 19.3939 25.1667 19.5C25.1661 19.6061 25.163 19.7029 25.1573 19.7904C25.1516 19.8779 25.1353 19.9677 25.1083 20.06L30.5722 23.34C30.7796 23.14 31.0194 22.9835 31.2917 22.8704C31.5639 22.7573 31.8556 22.7005 32.1667 22.7C32.8148 22.7 33.3657 22.9333 33.8194 23.4C34.2731 23.8667 34.5 24.4333 34.5 25.1C34.5 25.7667 34.2731 26.3333 33.8194 26.8C33.3657 27.2667 32.8148 27.5 32.1667 27.5Z" fill="#56585C"/>
<path d="M53.744 15.119C53.69 15.209 53.63 15.278 53.564 15.326C53.504 15.368 53.429 15.389 53.339 15.389C53.237 15.389 53.117 15.338 52.979 15.236C52.841 15.134 52.667 15.023 52.457 14.903C52.253 14.777 52.004 14.663 51.71 14.561C51.422 14.459 51.071 14.408 50.657 14.408C50.267 14.408 49.922 14.462 49.622 14.57C49.328 14.672 49.079 14.813 48.875 14.993C48.677 15.173 48.527 15.386 48.425 15.632C48.323 15.872 48.272 16.133 48.272 16.415C48.272 16.775 48.359 17.075 48.533 17.315C48.713 17.549 48.947 17.75 49.235 17.918C49.529 18.086 49.859 18.233 50.225 18.359C50.597 18.479 50.975 18.605 51.359 18.737C51.749 18.869 52.127 19.019 52.493 19.187C52.865 19.349 53.195 19.556 53.483 19.808C53.777 20.06 54.011 20.369 54.185 20.735C54.365 21.101 54.455 21.551 54.455 22.085C54.455 22.649 54.359 23.18 54.167 23.678C53.975 24.17 53.693 24.599 53.321 24.965C52.955 25.331 52.502 25.619 51.962 25.829C51.428 26.039 50.819 26.144 50.135 26.144C49.295 26.144 48.533 25.994 47.849 25.694C47.165 25.388 46.58 24.977 46.094 24.461L46.598 23.633C46.646 23.567 46.703 23.513 46.769 23.471C46.841 23.423 46.919 23.399 47.003 23.399C47.081 23.399 47.168 23.432 47.264 23.498C47.366 23.558 47.48 23.636 47.606 23.732C47.732 23.828 47.876 23.933 48.038 24.047C48.2 24.161 48.383 24.266 48.587 24.362C48.797 24.458 49.034 24.539 49.298 24.605C49.562 24.665 49.859 24.695 50.189 24.695C50.603 24.695 50.972 24.638 51.296 24.524C51.62 24.41 51.893 24.251 52.115 24.047C52.343 23.837 52.517 23.588 52.637 23.3C52.757 23.012 52.817 22.691 52.817 22.337C52.817 21.947 52.727 21.629 52.547 21.383C52.373 21.131 52.142 20.921 51.854 20.753C51.566 20.585 51.236 20.444 50.864 20.33C50.492 20.21 50.114 20.09 49.73 19.97C49.346 19.844 48.968 19.7 48.596 19.538C48.224 19.376 47.894 19.166 47.606 18.908C47.318 18.65 47.084 18.329 46.904 17.945C46.73 17.555 46.643 17.075 46.643 16.505C46.643 16.049 46.73 15.608 46.904 15.182C47.084 14.756 47.342 14.378 47.678 14.048C48.02 13.718 48.437 13.454 48.929 13.256C49.427 13.058 49.997 12.959 50.639 12.959C51.359 12.959 52.013 13.073 52.601 13.301C53.195 13.529 53.717 13.859 54.167 14.291L53.744 15.119ZM57.9952 18.098C58.3852 17.684 58.8172 17.354 59.2912 17.108C59.7652 16.862 60.3112 16.739 60.9292 16.739C61.4272 16.739 61.8652 16.823 62.2432 16.991C62.6272 17.153 62.9452 17.387 63.1972 17.693C63.4552 17.993 63.6502 18.356 63.7822 18.782C63.9142 19.208 63.9802 19.679 63.9802 20.195V26H62.3692V20.195C62.3692 19.505 62.2102 18.971 61.8922 18.593C61.5802 18.209 61.1032 18.017 60.4612 18.017C59.9872 18.017 59.5432 18.131 59.1292 18.359C58.7212 18.587 58.3432 18.896 57.9952 19.286V26H56.3842V12.743H57.9952V18.098ZM71.3623 21.896C70.6243 21.92 69.9943 21.98 69.4723 22.076C68.9563 22.166 68.5333 22.286 68.2033 22.436C67.8793 22.586 67.6423 22.763 67.4923 22.967C67.3483 23.171 67.2763 23.399 67.2763 23.651C67.2763 23.891 67.3153 24.098 67.3933 24.272C67.4713 24.446 67.5763 24.59 67.7083 24.704C67.8463 24.812 68.0053 24.893 68.1853 24.947C68.3713 24.995 68.5693 25.019 68.7793 25.019C69.0613 25.019 69.3193 24.992 69.5533 24.938C69.7873 24.878 70.0063 24.794 70.2103 24.686C70.4203 24.578 70.6183 24.449 70.8043 24.299C70.9963 24.149 71.1823 23.978 71.3623 23.786V21.896ZM66.1873 18.17C66.6913 17.684 67.2343 17.321 67.8163 17.081C68.3983 16.841 69.0433 16.721 69.7513 16.721C70.2613 16.721 70.7143 16.805 71.1103 16.973C71.5063 17.141 71.8393 17.375 72.1093 17.675C72.3793 17.975 72.5833 18.338 72.7213 18.764C72.8593 19.19 72.9283 19.658 72.9283 20.168V26H72.2173C72.0613 26 71.9413 25.976 71.8573 25.928C71.7733 25.874 71.7073 25.772 71.6593 25.622L71.4793 24.758C71.2393 24.98 71.0053 25.178 70.7773 25.352C70.5493 25.52 70.3093 25.664 70.0573 25.784C69.8053 25.898 69.5353 25.985 69.2473 26.045C68.9653 26.111 68.6503 26.144 68.3023 26.144C67.9483 26.144 67.6153 26.096 67.3033 26C66.9913 25.898 66.7183 25.748 66.4843 25.55C66.2563 25.352 66.0733 25.103 65.9353 24.803C65.8033 24.497 65.7373 24.137 65.7373 23.723C65.7373 23.363 65.8363 23.018 66.0343 22.688C66.2323 22.352 66.5533 22.055 66.9973 21.797C67.4413 21.539 68.0203 21.329 68.7343 21.167C69.4483 20.999 70.3243 20.903 71.3623 20.879V20.168C71.3623 19.46 71.2093 18.926 70.9033 18.566C70.5973 18.2 70.1503 18.017 69.5623 18.017C69.1663 18.017 68.8333 18.068 68.5633 18.17C68.2993 18.266 68.0683 18.377 67.8703 18.503C67.6783 18.623 67.5103 18.734 67.3663 18.836C67.2283 18.932 67.0903 18.98 66.9523 18.98C66.8443 18.98 66.7513 18.953 66.6733 18.899C66.5953 18.839 66.5293 18.767 66.4753 18.683L66.1873 18.17ZM76.8896 18.71C77.1776 18.086 77.5316 17.6 77.9516 17.252C78.3716 16.898 78.8846 16.721 79.4906 16.721C79.6826 16.721 79.8656 16.742 80.0396 16.784C80.2196 16.826 80.3786 16.892 80.5166 16.982L80.3996 18.179C80.3636 18.329 80.2736 18.404 80.1296 18.404C80.0456 18.404 79.9226 18.386 79.7606 18.35C79.5986 18.314 79.4156 18.296 79.2116 18.296C78.9236 18.296 78.6656 18.338 78.4376 18.422C78.2156 18.506 78.0146 18.632 77.8346 18.8C77.6606 18.962 77.5016 19.166 77.3576 19.412C77.2196 19.652 77.0936 19.928 76.9796 20.24V26H75.3686V16.883H76.2866C76.4606 16.883 76.5806 16.916 76.6466 16.982C76.7126 17.048 76.7576 17.162 76.7816 17.324L76.8896 18.71ZM87.6581 20.447C87.6581 20.075 87.6041 19.736 87.4961 19.43C87.3941 19.118 87.2411 18.851 87.0371 18.629C86.8391 18.401 86.5961 18.227 86.3081 18.107C86.0201 17.981 85.6931 17.918 85.3271 17.918C84.5591 17.918 83.9501 18.143 83.5001 18.593C83.0561 19.037 82.7801 19.655 82.6721 20.447H87.6581ZM88.9541 24.722C88.7561 24.962 88.5191 25.172 88.2431 25.352C87.9671 25.526 87.6701 25.67 87.3521 25.784C87.0401 25.898 86.7161 25.982 86.3801 26.036C86.0441 26.096 85.7111 26.126 85.3811 26.126C84.7511 26.126 84.1691 26.021 83.6351 25.811C83.1071 25.595 82.6481 25.283 82.2581 24.875C81.8741 24.461 81.5741 23.951 81.3581 23.345C81.1421 22.739 81.0341 22.043 81.0341 21.257C81.0341 20.621 81.1301 20.027 81.3221 19.475C81.5201 18.923 81.8021 18.446 82.1681 18.044C82.5341 17.636 82.9811 17.318 83.5091 17.09C84.0371 16.856 84.6311 16.739 85.2911 16.739C85.8371 16.739 86.3411 16.832 86.8031 17.018C87.2711 17.198 87.6731 17.462 88.0091 17.81C88.3511 18.152 88.6181 18.578 88.8101 19.088C89.0021 19.592 89.0981 20.168 89.0981 20.816C89.0981 21.068 89.0711 21.236 89.0171 21.32C88.9631 21.404 88.8611 21.446 88.7111 21.446H82.6181C82.6361 22.022 82.7141 22.523 82.8521 22.949C82.9961 23.375 83.1941 23.732 83.4461 24.02C83.6981 24.302 83.9981 24.515 84.3461 24.659C84.6941 24.797 85.0841 24.866 85.5161 24.866C85.9181 24.866 86.2631 24.821 86.5511 24.731C86.8451 24.635 87.0971 24.533 87.3071 24.425C87.5171 24.317 87.6911 24.218 87.8291 24.128C87.9731 24.032 88.0961 23.984 88.1981 23.984C88.3301 23.984 88.4321 24.035 88.5041 24.137L88.9541 24.722Z" fill="#56585C"/>
</g>
<defs>
<clipPath id="clip0_1315_5646">
<rect width="70" height="16" fill="white" transform="translate(20.5 11.5)"/>
</clipPath>
</defs>
</svg>
