<svg width="41" height="48" viewBox="0 0 41 48" fill="none" xmlns="http://www.w3.org/2000/svg">
<path d="M26.966 31.7153C28.9256 31.7153 30.5141 30.1268 30.5141 28.1672C30.5141 26.2077 28.9256 24.6191 26.966 24.6191C25.0065 24.6191 23.418 26.2077 23.418 28.1672C23.418 30.1268 25.0065 31.7153 26.966 31.7153Z" fill="#CB8511"/>
<path d="M14.0364 31.7153C15.9959 31.7153 17.5844 30.1268 17.5844 28.1672C17.5844 26.2077 15.9959 24.6191 14.0364 24.6191C12.0768 24.6191 10.4883 26.2077 10.4883 28.1672C10.4883 30.1268 12.0768 31.7153 14.0364 31.7153Z" fill="#CB8511"/>
<path d="M20.5012 21.5239C22.4608 21.5239 24.0493 19.9354 24.0493 17.9758C24.0493 16.0163 22.4608 14.4277 20.5012 14.4277C18.5417 14.4277 16.9531 16.0163 16.9531 17.9758C16.9531 19.9354 18.5417 21.5239 20.5012 21.5239Z" fill="#CB8511"/>
<path d="M38.7056 10.1348L22.9363 0.673235C22.2015 0.232693 21.3608 0 20.5039 0C19.6471 0 18.8064 0.232693 18.0715 0.673235L2.30231 10.1348C1.60134 10.5541 1.02087 11.1477 0.61741 11.8579C0.21395 12.5681 0.00124426 13.3707 0 14.1875V33.1105C0.000427275 33.9266 0.211937 34.7286 0.613978 35.4388C1.01602 36.1489 1.59492 36.743 2.29442 37.1632L18.0637 46.6248C18.7985 47.0653 19.6392 47.298 20.4961 47.298C21.3529 47.298 22.1936 47.0653 22.9285 46.6248L38.6977 37.1632C39.3987 36.7439 39.9791 36.1503 40.3826 35.4401C40.786 34.7299 40.9988 33.9273 41 33.1105V14.1875C40.9996 13.3714 40.7881 12.5694 40.386 11.8592C39.984 11.1491 39.4051 10.555 38.7056 10.1348ZM36.2692 33.1105L20.5 42.5721L4.73077 33.1105V14.1875L20.5 4.72593L36.2692 14.1875V33.1105Z" fill="black"/>
</svg>
