<svg width="60" height="56" viewBox="0 0 60 56" fill="none" xmlns="http://www.w3.org/2000/svg">
<path fill-rule="evenodd" clip-rule="evenodd" d="M11.5874 35.2058C15.2255 35.2058 18.1748 32.2514 18.1748 28.607C18.1748 24.9626 15.2255 22.0082 11.5874 22.0082C7.94927 22.0082 5 24.9626 5 28.607C5 32.2514 7.94927 35.2058 11.5874 35.2058ZM34.8593 45.4658C34.783 49.0438 31.8636 51.9207 28.2735 51.9207C24.6354 51.9207 21.6861 48.9664 21.6861 45.322C21.6861 41.6776 24.6354 38.7232 28.2735 38.7232C28.2824 38.7232 28.2915 38.723 28.301 38.7225C28.3403 38.723 28.3797 38.7232 28.4191 38.7232C34.0148 38.7232 38.5629 34.2296 38.6632 28.6482C38.6644 28.6339 38.6649 28.6202 38.6649 28.607C38.6649 28.5982 38.6647 28.5891 38.6643 28.5798C38.6647 28.5398 38.6649 28.4997 38.6649 28.4596C38.6649 22.7912 34.0777 18.196 28.4191 18.196C28.3606 18.196 28.3021 18.1965 28.2438 18.1975C24.6194 18.1815 21.6861 15.2333 21.6861 11.5988C21.6861 7.95438 24.6354 5 28.2735 5C31.9017 5 34.8448 7.93834 34.8608 11.5691C34.8598 11.6275 34.8593 11.686 34.8593 11.7446C34.8593 17.4131 39.4466 22.0082 45.1052 22.0082C45.1444 22.0082 45.1836 22.008 45.2228 22.0076C45.2329 22.008 45.2427 22.0082 45.2523 22.0082C48.8904 22.0082 51.8397 24.9626 51.8397 28.607C51.8397 32.2419 48.9058 35.1904 45.2808 35.2057C45.2224 35.2047 45.1638 35.2042 45.1052 35.2042C39.4472 35.2042 34.8604 39.7983 34.8593 45.4658Z" fill="black"/>
<circle cx="12.5" cy="28.5" r="7.5" fill="#CB8511"/>
</svg>
