<svg width="61" height="56" viewBox="0 0 61 56" fill="none" xmlns="http://www.w3.org/2000/svg">
<path d="M31.0002 12C22.1634 12 15 19.164 15 28.0002C15 36.8364 22.1634 44.0004 31.0002 44.0004C39.8364 44.0004 47.0004 36.8364 47.0004 28.0002C47.0004 19.164 39.8364 12 31.0002 12ZM31.0002 40.0002C24.3726 40.0002 19.0002 34.6272 19.0002 28.0002C19.0002 21.3714 24.3726 16.0002 31.0002 16.0002C37.6272 16.0002 43.0002 21.3714 43.0002 28.0002C43.0002 34.6272 37.6272 40.0002 31.0002 40.0002Z" fill="black"/>
<path d="M30.9998 35.9996C35.418 35.9996 38.9996 32.418 38.9996 27.9998C38.9996 23.5816 35.418 20 30.9998 20C26.5816 20 23 23.5816 23 27.9998C23 32.418 26.5816 35.9996 30.9998 35.9996Z" fill="#CB8511"/>
<path d="M55 4H31C22.6486 4 15.2998 8.2714 11.0008 14.7424V4H7V28C7 36.3514 11.2714 43.7014 17.7442 47.9998H7V52H31C39.3514 52 46.7014 47.7286 50.9998 41.2558V52H55V28C55 19.6486 50.7286 12.2992 44.2558 8.0002H55V4ZM50.9998 28C50.9998 39.0448 42.0448 47.9998 31 47.9998C19.954 47.9998 11.0002 39.0448 11.0002 28H11.0014V27.9802C11.0116 16.9432 19.9612 8.0002 31 8.0002C42.0448 8.0002 50.9998 16.9528 50.9998 28Z" fill="black"/>
</svg>
