<svg width="61" height="56" viewBox="0 0 61 56" fill="none" xmlns="http://www.w3.org/2000/svg">
<circle cx="31" cy="39" r="11" fill="#CB8511"/>
<path fill-rule="evenodd" clip-rule="evenodd" d="M31 6.82353C19.3044 6.82353 9.82353 16.3044 9.82353 28C9.82353 32.7625 11.3963 37.1567 14.05 40.6946C13.1456 38.524 12.6471 36.1439 12.6471 33.6471C12.6471 23.5112 20.8641 15.2941 31 15.2941C41.1359 15.2941 49.3529 23.5112 49.3529 33.6471C49.3529 36.1441 48.8544 38.5243 47.95 40.6946C50.6037 37.1564 52.1765 32.7622 52.1765 28C52.1765 16.3044 42.6956 6.82353 31 6.82353ZM55 28C55 41.2553 44.2553 52 31 52C17.7447 52 7 41.2553 7 28C7 14.7447 17.7447 4 31 4C44.2553 4 55 14.7447 55 28ZM42.9848 43.5226C43.4524 42.1991 43.7061 40.7763 43.7061 39.294C43.7061 32.2769 38.0172 26.5881 31.0002 26.5881C23.9831 26.5881 18.2943 32.2769 18.2943 39.294C18.2943 40.7763 18.548 42.1991 19.0156 43.5226C16.8009 40.8381 15.4708 37.399 15.4708 33.6471C15.4708 25.0703 22.4234 18.1176 31.0002 18.1176C39.5769 18.1176 46.5296 25.0703 46.5296 33.6471C46.5296 37.3993 45.1994 40.838 42.9848 43.5226ZM31 49.1765C25.5426 49.1765 21.1176 44.7515 21.1176 39.2941C21.1176 33.8367 25.5426 29.4118 31 29.4118C36.4574 29.4118 40.8824 33.8367 40.8824 39.2941C40.8824 44.7515 36.4574 49.1765 31 49.1765Z" fill="black"/>
</svg>
