<svg width="61" height="56" viewBox="0 0 61 56" fill="none" xmlns="http://www.w3.org/2000/svg">
<path d="M49.1867 48.6575L13.6311 29.102C13.36 28.9537 13.0549 28.8786 12.746 28.8841C12.437 28.8896 12.1348 28.9756 11.8692 29.1335C11.6036 29.2915 11.3837 29.5159 11.2313 29.7847C11.0789 30.0535 10.9992 30.3574 11 30.6664V50.222C11 50.6935 11.1873 51.1457 11.5207 51.4791C11.8541 51.8125 12.3063 51.9998 12.7778 51.9998H48.3333C48.7298 52.0018 49.1156 51.8712 49.4293 51.6287C49.743 51.3863 49.9667 51.046 50.0648 50.6618C50.1629 50.2776 50.1298 49.8717 49.9706 49.5086C49.8115 49.1454 49.5356 48.8459 49.1867 48.6575ZM14.5556 48.4442V33.6709L41.4533 48.4442H14.5556ZM16.5644 27.1109C18.0402 27.1109 19.4556 26.5246 20.4991 25.4811C21.5426 24.4376 22.1289 23.0222 22.1289 21.5464V14.6664C22.1289 14.195 21.9416 13.7428 21.6082 13.4094C21.2748 13.076 20.8226 12.8887 20.3511 12.8887H12.7778C12.3063 12.8887 11.8541 13.076 11.5207 13.4094C11.1873 13.7428 11 14.195 11 14.6664V21.5464C11 23.0222 11.5863 24.4376 12.6298 25.4811C13.6733 26.5246 15.0887 27.1109 16.5644 27.1109ZM14.5556 16.4442H18.5733V21.5464C18.5733 22.0792 18.3617 22.5902 17.9849 22.9669C17.6082 23.3437 17.0972 23.5553 16.5644 23.5553C16.0317 23.5553 15.5207 23.3437 15.144 22.9669C14.7672 22.5902 14.5556 22.0792 14.5556 21.5464V16.4442ZM30.7867 34.222C32.2624 34.222 33.6778 33.6357 34.7213 32.5922C35.7649 31.5487 36.3511 30.1333 36.3511 28.6576V14.6664C36.3511 14.195 36.1638 13.7428 35.8304 13.4094C35.497 13.076 35.0448 12.8887 34.5733 12.8887H27C26.5285 12.8887 26.0763 13.076 25.7429 13.4094C25.4095 13.7428 25.2222 14.195 25.2222 14.6664V28.6576C25.2222 30.1333 25.8085 31.5487 26.852 32.5922C27.8955 33.6357 29.3109 34.222 30.7867 34.222ZM28.7778 16.4442H32.7956V28.6576C32.7956 29.1903 32.5839 29.7013 32.2072 30.0781C31.8304 30.4548 31.3195 30.6664 30.7867 30.6664C30.2539 30.6664 29.7429 30.4548 29.3662 30.0781C28.9894 29.7013 28.7778 29.1903 28.7778 28.6576V16.4442ZM48.7955 12.8887H41.2222C40.7507 12.8887 40.2985 13.076 39.9651 13.4094C39.6317 13.7428 39.4444 14.195 39.4444 14.6664V37.5464C39.4444 39.0222 40.0307 40.4376 41.0742 41.4811C42.1178 42.5246 43.5331 43.1109 45.0089 43.1109C46.4847 43.1109 47.9 42.5246 48.9435 41.4811C49.9871 40.4376 50.5733 39.0222 50.5733 37.5464V14.6664C50.5733 14.433 50.5273 14.2018 50.438 13.9861C50.3487 13.7704 50.2177 13.5745 50.0526 13.4094C49.8875 13.2443 49.6916 13.1133 49.4759 13.024C49.2602 12.9347 49.029 12.8887 48.7955 12.8887ZM47.0178 37.5464C47.0178 38.0792 46.8061 38.5902 46.4294 38.9669C46.0526 39.3437 45.5417 39.5553 45.0089 39.5553C44.4761 39.5553 43.9651 39.3437 43.5884 38.9669C43.2116 38.5902 43 38.0792 43 37.5464V16.4442H47.0178V37.5464Z" fill="black"/>
<circle cx="44.5" cy="7.5" r="3.5" fill="#CB8511"/>
<circle cx="30.5" cy="7.5" r="3.5" fill="#CB8511"/>
<circle cx="16.5" cy="7.5" r="3.5" fill="#CB8511"/>
</svg>
