<svg width="142" height="143" viewBox="0 0 142 143" fill="none" xmlns="http://www.w3.org/2000/svg">
<path d="M56.4848 33.9724C57.654 33.5194 58.8991 33.5826 59.9621 34.0508C61.0275 34.519 61.9108 35.3947 62.3663 36.5664C62.8193 37.7357 62.7561 38.9808 62.2879 40.0437C61.8197 41.1092 60.944 41.9924 59.7723 42.448C58.603 42.901 57.3579 42.8377 56.295 42.3695C55.2295 41.9013 54.3463 41.0257 53.8907 39.8539C53.4377 38.6847 53.501 37.4396 53.9692 36.3766C54.4374 35.3112 55.313 34.4279 56.4848 33.9724ZM37.4381 49.2406C38.1366 48.1979 39.1919 47.5374 40.3307 47.3096C41.4721 47.0844 42.6996 47.2919 43.7423 47.9904C44.7849 48.6889 45.4455 49.7442 45.6732 50.8831C45.8985 52.0245 45.691 53.2519 44.9925 54.2946C44.294 55.3373 43.2386 55.9978 42.0998 56.2256C40.9584 56.4508 39.731 56.2433 38.6883 55.5448C37.6456 54.8463 36.9851 53.791 36.7573 52.6521C36.532 51.5107 36.7396 50.2833 37.4381 49.2406ZM30.5948 72.6732C30.5695 71.4179 31.0529 70.2715 31.8577 69.4313C32.6625 68.591 33.7887 68.0596 35.0414 68.0342C36.2967 68.0089 37.4431 68.4923 38.2833 69.2971C39.1236 70.1019 39.655 71.2281 39.6803 72.4808C39.7057 73.7361 39.2223 74.8826 38.4175 75.7228C37.6127 76.563 36.4865 77.0945 35.2337 77.1198C33.9785 77.1451 32.832 76.6617 31.9918 75.8569C31.1516 75.0521 30.6201 73.9259 30.5948 72.6732ZM38.4276 95.7919C37.6861 94.7796 37.4254 93.5623 37.6051 92.4133C37.7822 91.2644 38.3998 90.1812 39.4121 89.4422C40.4244 88.7007 41.6417 88.44 42.7907 88.6197C43.9397 88.7968 45.0228 89.4144 45.7618 90.4267C46.5033 91.439 46.764 92.6563 46.5843 93.8053C46.4072 94.9542 45.7897 96.0374 44.7773 96.7764C43.765 97.5179 42.5477 97.7786 41.3987 97.5989C40.2498 97.4218 39.1666 96.8043 38.4276 95.7919ZM58.107 110.238C56.9201 109.833 56.0065 108.985 55.4927 107.942C54.979 106.9 54.8625 105.659 55.2675 104.47C55.6724 103.283 56.5202 102.369 57.5629 101.856C58.6056 101.342 59.8457 101.226 61.0351 101.63C62.2221 102.035 63.1357 102.883 63.6494 103.926C64.1632 104.969 64.2796 106.209 63.8747 107.398C63.4697 108.585 62.6219 109.499 61.5793 110.012C60.5366 110.526 59.2965 110.643 58.107 110.238ZM82.5114 110.784C81.3067 111.134 80.0743 110.964 79.0543 110.402C78.0344 109.843 77.2297 108.894 76.8804 107.687C76.5312 106.482 76.7007 105.249 77.2625 104.23C77.8218 103.21 78.7709 102.405 79.9781 102.056C81.1827 101.706 82.4152 101.876 83.4351 102.438C84.455 102.997 85.2598 103.946 85.6091 105.153C85.9583 106.358 85.7888 107.59 85.2269 108.61C84.6676 109.63 83.7186 110.435 82.5114 110.784ZM102.816 97.2345C102.029 98.2114 100.92 98.7783 99.7638 98.9048C98.6072 99.0313 97.4026 98.715 96.4257 97.9279C95.4488 97.1409 94.8819 96.0324 94.7554 94.8758C94.6288 93.7192 94.9452 92.5146 95.7322 91.5377C96.5193 90.5608 97.6278 89.9939 98.7844 89.8674C99.9409 89.7408 101.146 90.0572 102.122 90.8443C103.099 91.6313 103.666 92.7398 103.793 93.8964C103.919 95.0529 103.603 96.2576 102.816 97.2345ZM111.676 74.4878C111.593 75.7405 111.011 76.8389 110.135 77.6057C109.259 78.3725 108.093 78.8053 106.84 78.7218C105.587 78.6383 104.489 78.0562 103.722 77.1805C102.955 76.3049 102.522 75.1382 102.606 73.8854C102.689 72.6327 103.271 71.5343 104.147 70.7675C105.023 70.0007 106.189 69.5679 107.442 69.6514C108.695 69.7349 109.793 70.317 110.56 71.1927C111.327 72.0683 111.76 73.235 111.676 74.4878ZM105.888 50.7743C106.539 51.8473 106.691 53.0824 106.415 54.2136C106.136 55.3423 105.428 56.3673 104.355 57.0177C103.282 57.6681 102.047 57.8225 100.915 57.5441C99.7866 57.2658 98.7616 56.5597 98.1112 55.4841C97.4608 54.411 97.3064 53.176 97.5848 52.0447C97.8632 50.916 98.5718 49.891 99.6448 49.2406C100.718 48.5902 101.953 48.4384 103.084 48.7142C104.213 48.9926 105.238 49.7012 105.888 50.7743ZM87.5451 34.6683C88.6941 35.1745 89.5267 36.0982 89.9494 37.1839C90.3695 38.2671 90.3771 39.5123 89.8709 40.6612C89.3648 41.8102 88.441 42.6429 87.3553 43.0655C86.2721 43.4856 85.027 43.4932 83.878 42.987C82.729 42.4809 81.8964 41.5571 81.4738 40.4714C81.0537 39.3883 81.0461 38.1431 81.5522 36.9941C82.0584 35.8452 82.9821 35.0125 84.0678 34.5899C85.1535 34.1698 86.3962 34.1622 87.5451 34.6683ZM71.1912 21.5867C72.1352 21.5867 72.9881 21.9688 73.6056 22.5864C74.2231 23.2039 74.6052 24.0593 74.6052 25.0007C74.6052 25.9447 74.2231 26.7976 73.6056 27.4151C72.9881 28.0326 72.1326 28.4148 71.1912 28.4148C70.2472 28.4148 69.3943 28.0326 68.7768 27.4151C68.1593 26.7976 67.7772 25.9422 67.7772 25.0007C67.7772 24.0567 68.1593 23.2039 68.7768 22.5864C69.3943 21.9688 70.2497 21.5867 71.1912 21.5867ZM54.0451 24.5528C54.9309 24.2314 55.8647 24.2972 56.6569 24.6667C57.449 25.0362 58.0994 25.7068 58.4234 26.5926C58.7448 27.4784 58.679 28.4122 58.3095 29.2044C57.94 29.9965 57.2693 30.6469 56.3835 30.9709C55.4978 31.2923 54.5639 31.2265 53.7718 30.857C52.9796 30.4875 52.3292 29.8168 52.0053 28.931C51.6839 28.0453 51.7497 27.1114 52.1192 26.3193C52.4887 25.5271 53.1593 24.8767 54.0451 24.5528ZM38.9464 33.2055C39.6677 32.6007 40.5686 32.3425 41.4392 32.4185C42.3098 32.4944 43.1526 32.9018 43.7574 33.6257C44.3623 34.3469 44.6204 35.2479 44.5445 36.1185C44.4686 36.9891 44.0611 37.8318 43.3373 38.4367C42.6161 39.0441 41.7151 39.2997 40.8445 39.2238C39.9739 39.1478 39.1312 38.7404 38.5263 38.0166C37.9189 37.2953 37.6633 36.3943 37.7392 35.5237C37.8152 34.6532 38.2226 33.8104 38.9464 33.2055ZM27.7173 46.4998C28.188 45.6823 28.9473 45.1357 29.79 44.9079C30.6353 44.6827 31.5641 44.7788 32.3815 45.2496C33.199 45.7203 33.7456 46.4795 33.9734 47.3223C34.1987 48.1676 34.105 49.0964 33.6318 49.9138C33.161 50.7313 32.4018 51.2779 31.559 51.5057C30.7138 51.7309 29.785 51.6373 28.9675 51.164C28.1501 50.6933 27.6034 49.9341 27.3756 49.0913C27.1504 48.246 27.244 47.3172 27.7173 46.4998ZM21.7117 62.8335C21.8762 61.9047 22.4001 61.1303 23.1163 60.6292C23.8325 60.1281 24.7386 59.9003 25.6674 60.0623C26.5962 60.2268 27.3706 60.7506 27.8717 61.4669C28.3728 62.1831 28.6005 63.0891 28.4386 64.0179C28.2741 64.9467 27.7502 65.7211 27.034 66.2222C26.3178 66.7233 25.4118 66.9511 24.483 66.7891C23.5542 66.6246 22.7797 66.1007 22.2786 65.3845C21.7775 64.6683 21.5498 63.7623 21.7117 62.8335ZM21.6561 80.2352C21.4916 79.3064 21.7193 78.4004 22.223 77.6841C22.7241 76.9679 23.4985 76.4441 24.4273 76.2796C25.3561 76.1151 26.2621 76.3428 26.9783 76.8465C27.6945 77.3476 28.2184 78.122 28.3829 79.0508C28.5474 79.9796 28.3196 80.8856 27.816 81.6018C27.3149 82.318 26.5405 82.8419 25.6117 83.0064C24.6829 83.1709 23.7769 82.9431 23.0607 82.4395C22.3444 81.9384 21.8206 81.164 21.6561 80.2352ZM27.5553 96.6068C27.0846 95.7894 26.9884 94.8606 27.2137 94.0153C27.4389 93.17 27.9881 92.4133 28.8055 91.9426C29.623 91.4719 30.5518 91.3757 31.3971 91.601C32.2424 91.8262 32.9991 92.3754 33.4698 93.1928C33.9405 94.0103 34.0367 94.9391 33.8114 95.7843C33.5862 96.6296 33.037 97.3863 32.2196 97.8571C31.4021 98.3278 30.4733 98.424 29.628 98.1987C28.7828 97.9735 28.0261 97.4243 27.5553 96.6068ZM38.6984 109.974C37.9771 109.37 37.5671 108.527 37.4912 107.656C37.4153 106.786 37.6709 105.885 38.2783 105.163C38.8831 104.442 39.7259 104.032 40.5965 103.956C41.4671 103.88 42.368 104.136 43.0893 104.743C43.8106 105.351 44.2206 106.191 44.2965 107.062C44.3724 107.932 44.1168 108.833 43.5094 109.554C42.902 110.276 42.0618 110.686 41.1912 110.762C40.3206 110.837 39.4197 110.582 38.6984 109.974ZM53.7414 118.723C52.8556 118.402 52.185 117.749 51.8155 116.957C51.446 116.165 51.3802 115.231 51.7016 114.345C52.023 113.459 52.6759 112.789 53.4681 112.419C54.2602 112.05 55.1941 111.984 56.0798 112.305C56.9656 112.627 57.6363 113.28 58.0058 114.072C58.3753 114.864 58.4436 115.798 58.1197 116.684C57.7983 117.569 57.1453 118.24 56.3532 118.61C55.561 118.979 54.6272 119.047 53.7414 118.723ZM70.8698 121.801C69.9258 121.801 69.0729 121.419 68.4554 120.801C67.8379 120.184 67.4557 119.328 67.4557 118.387C67.4557 117.443 67.8379 116.59 68.4554 115.972C69.0729 115.355 69.9283 114.973 70.8698 114.973C71.8138 114.973 72.6666 115.355 73.2841 115.972C73.9017 116.59 74.2838 117.445 74.2838 118.387C74.2838 119.331 73.9017 120.184 73.2841 120.801C72.6666 121.419 71.8112 121.801 70.8698 121.801ZM88.0159 118.835C87.1301 119.156 86.1962 119.09 85.4041 118.721C84.612 118.351 83.9615 117.681 83.6376 116.795C83.3162 115.909 83.382 114.975 83.7515 114.183C84.121 113.391 84.7916 112.741 85.6774 112.417C86.5632 112.095 87.4971 112.161 88.2892 112.531C89.0813 112.9 89.7317 113.571 90.0557 114.456C90.3771 115.342 90.3113 116.276 89.9418 117.068C89.5723 117.86 88.9016 118.511 88.0159 118.835ZM103.115 110.182C102.393 110.789 101.492 111.045 100.622 110.969C99.7511 110.893 98.9084 110.486 98.3035 109.762C97.6987 109.041 97.4405 108.14 97.5164 107.269C97.5924 106.398 97.9998 105.556 98.7236 104.951C99.4449 104.346 100.346 104.088 101.216 104.164C102.087 104.24 102.93 104.647 103.535 105.371C104.14 106.092 104.398 106.993 104.322 107.864C104.246 108.734 103.838 109.577 103.115 110.182ZM114.344 96.8878C113.873 97.7052 113.114 98.2519 112.271 98.4796C111.426 98.7049 110.497 98.6087 109.679 98.138C108.862 97.6673 108.315 96.908 108.088 96.0653C107.862 95.22 107.956 94.2912 108.429 93.4737C108.9 92.6563 109.659 92.1096 110.502 91.8819C111.347 91.6566 112.276 91.7503 113.093 92.2235C113.911 92.6943 114.458 93.4535 114.685 94.2962C114.911 95.1415 114.817 96.0703 114.344 96.8878ZM120.349 80.5541C120.185 81.4829 119.661 82.2573 118.945 82.7584C118.228 83.2595 117.322 83.4872 116.394 83.3253C115.465 83.1608 114.69 82.6369 114.189 81.9207C113.688 81.2045 113.46 80.2984 113.622 79.3697C113.787 78.4408 114.311 77.6664 115.027 77.1653C115.743 76.6642 116.649 76.4365 117.578 76.5984C118.507 76.7629 119.281 77.2868 119.782 78.003C120.283 78.7192 120.511 79.6253 120.349 80.5541ZM120.405 63.1524C120.569 64.0812 120.342 64.9872 119.838 65.7034C119.337 66.4196 118.562 66.9435 117.634 67.108C116.705 67.2725 115.799 67.0447 115.083 66.5411C114.366 66.04 113.843 65.2656 113.678 64.3368C113.514 63.408 113.741 62.5019 114.245 61.7857C114.746 61.0695 115.52 60.5457 116.449 60.3811C117.378 60.2166 118.284 60.4444 119 60.948C119.717 61.4491 120.24 62.2236 120.405 63.1524ZM114.506 46.7807C114.976 47.5981 115.073 48.5269 114.847 49.3722C114.622 50.2175 114.073 50.9742 113.255 51.4449C112.438 51.9157 111.509 52.0118 110.664 51.7866C109.819 51.5614 109.062 51.0122 108.591 50.1947C108.12 49.3773 108.024 48.4485 108.25 47.6032C108.475 46.7579 109.024 46.0012 109.841 45.5305C110.659 45.0598 111.588 44.9636 112.433 45.1888C113.278 45.4141 114.035 45.9632 114.506 46.7807ZM103.363 33.4131C104.084 34.0179 104.494 34.8607 104.57 35.7313C104.646 36.6019 104.39 37.5003 103.783 38.2241C103.175 38.9454 102.335 39.3554 101.464 39.4313C100.594 39.5072 99.6929 39.2516 98.9716 38.6442C98.2504 38.0368 97.8404 37.1966 97.7645 36.326C97.6885 35.4554 97.9442 34.5545 98.5515 33.8332C99.1564 33.1119 99.9992 32.7019 100.87 32.626C101.74 32.5501 102.641 32.8057 103.363 33.4131ZM88.3196 24.6641C89.2053 24.9855 89.876 25.6385 90.2455 26.4306C90.615 27.2228 90.6808 28.1566 90.3594 29.0424C90.038 29.9282 89.385 30.5988 88.5929 30.9683C87.8008 31.3378 86.8669 31.4036 85.9811 31.0822C85.0953 30.7608 84.4247 30.1079 84.0552 29.3157C83.6857 28.5236 83.6174 27.5897 83.9413 26.7039C84.2627 25.8182 84.9157 25.1475 85.7078 24.778C86.4999 24.4085 87.4338 24.3402 88.3196 24.6641ZM71.0874 13.3515C71.6695 13.3515 72.1959 13.5869 72.5781 13.969C72.9602 14.3512 73.1956 14.8776 73.1956 15.4597C73.1956 16.0417 72.9602 16.5681 72.5781 16.9503C72.1959 17.3324 71.6695 17.5678 71.0874 17.5678C70.5053 17.5678 69.9789 17.3324 69.5968 16.9503C69.2146 16.5681 68.9793 16.0417 68.9793 15.4597C68.9793 14.8776 69.2146 14.3512 69.5968 13.969C69.9789 13.5869 70.5053 13.3515 71.0874 13.3515ZM56.0014 15.3331C56.5632 15.1838 57.1327 15.2749 57.6008 15.5432C58.0665 15.814 58.431 16.2594 58.5828 16.8212C58.7321 17.3831 58.641 17.9525 58.3727 18.4207C58.1019 18.8863 57.6565 19.2508 57.0947 19.4026C56.5329 19.5519 55.9634 19.4608 55.4952 19.1926C55.0296 18.9218 54.6651 18.4764 54.5133 17.9145C54.364 17.3527 54.4551 16.7833 54.7234 16.3151C54.9941 15.8494 55.4396 15.485 56.0014 15.3331ZM41.9429 21.1514C42.4465 20.8604 43.021 20.8022 43.5423 20.9413C44.0637 21.0805 44.5293 21.4197 44.8204 21.9233C45.1114 22.4269 45.1696 23.0014 45.0304 23.5227C44.8912 24.0441 44.5521 24.5098 44.0485 24.8008C43.5449 25.0918 42.9704 25.15 42.449 25.0109C41.9277 24.8717 41.462 24.5325 41.171 24.0289C40.8799 23.5253 40.8217 22.9508 40.9609 22.4294C41.1001 21.9081 41.4392 21.4424 41.9429 21.1514ZM29.8685 30.4116C30.2785 30.0016 30.8201 29.794 31.3591 29.794C31.8982 29.794 32.4372 29.999 32.8497 30.4116C33.2623 30.8215 33.4673 31.3631 33.4673 31.9022C33.4673 32.4412 33.2623 32.9803 32.8497 33.3928C32.4372 33.8053 31.8982 34.0103 31.3591 34.0103C30.8201 34.0103 30.281 33.8053 29.8685 33.3928C29.456 32.9803 29.251 32.4412 29.251 31.9022C29.251 31.3631 29.456 30.8241 29.8685 30.4116ZM20.6033 42.4809C20.8943 41.9773 21.3625 41.6381 21.8813 41.4989C22.4027 41.3597 22.9771 41.4179 23.4808 41.709C23.9844 42 24.3235 42.4682 24.4627 42.987C24.6019 43.5084 24.5437 44.0829 24.2527 44.5865C23.9616 45.0901 23.4934 45.4293 22.9746 45.5684C22.4533 45.7076 21.8788 45.6494 21.3752 45.3584C20.8715 45.0673 20.5324 44.5992 20.3932 44.0803C20.254 43.559 20.3122 42.9845 20.6033 42.4809ZM14.7774 56.5369C14.9267 55.975 15.2911 55.5271 15.7593 55.2588C16.225 54.9906 16.797 54.8969 17.3588 55.0488C17.9206 55.1981 18.3686 55.5625 18.6368 56.0307C18.9051 56.4964 18.9987 57.0683 18.8469 57.6302C18.6976 58.192 18.3331 58.64 17.8649 58.9082C17.3993 59.179 16.8273 59.2701 16.2655 59.1183C15.7037 58.969 15.2557 58.6045 14.9874 58.1363C14.7166 57.6707 14.6255 57.0987 14.7774 56.5369ZM12.7882 71.6204C12.7882 71.0383 13.0235 70.5119 13.4057 70.1297C13.7878 69.7476 14.3143 69.5122 14.8963 69.5122C15.4784 69.5122 16.0048 69.7476 16.3844 70.1297C16.7666 70.5119 17.0019 71.0383 17.0019 71.6204C17.0019 72.2025 16.7666 72.7289 16.3844 73.111C16.0023 73.4932 15.4759 73.7285 14.8938 73.7285C14.3117 73.7285 13.7853 73.4932 13.4032 73.111C13.021 72.7289 12.7857 72.2025 12.7857 71.6204H12.7882ZM14.7698 86.7064C14.6205 86.1446 14.7116 85.5751 14.9798 85.107C15.2481 84.6413 15.6961 84.2768 16.2579 84.125C16.8197 83.9757 17.3892 84.0668 17.8574 84.3351C18.323 84.6059 18.6875 85.0513 18.8393 85.6131C18.9886 86.1749 18.8975 86.7444 18.6292 87.2126C18.3584 87.6782 17.913 88.0427 17.3512 88.1945C16.7894 88.3438 16.2199 88.2527 15.7517 87.9845C15.2861 87.7162 14.9216 87.2682 14.7698 86.7064ZM20.5881 100.765C20.297 100.261 20.2388 99.6868 20.378 99.1655C20.5172 98.6441 20.8563 98.1785 21.36 97.8874C21.8636 97.5964 22.4381 97.5382 22.9594 97.6774C23.4808 97.8166 23.9464 98.1557 24.2375 98.6593C24.5285 99.1629 24.5867 99.7374 24.4475 100.259C24.3083 100.78 23.9692 101.246 23.4656 101.537C22.962 101.828 22.3875 101.886 21.8661 101.747C21.3448 101.608 20.8791 101.269 20.5881 100.765ZM29.8482 112.839C29.4382 112.429 29.2307 111.888 29.2307 111.349C29.2307 110.81 29.4357 110.271 29.8482 109.858C30.2582 109.448 30.7998 109.241 31.3389 109.241C31.8779 109.241 32.417 109.446 32.8295 109.858C33.242 110.271 33.447 110.81 33.447 111.349C33.447 111.888 33.242 112.427 32.8295 112.839C32.417 113.252 31.8779 113.457 31.3389 113.457C30.7998 113.457 30.2607 113.252 29.8482 112.839ZM55.9736 127.93C55.4117 127.781 54.9638 127.417 54.6955 126.948C54.4272 126.483 54.3336 125.911 54.4855 125.349C54.6348 124.787 54.9992 124.339 55.4674 124.071C55.9331 123.8 56.505 123.709 57.0669 123.861C57.6287 124.01 58.0766 124.375 58.3449 124.843C58.6132 125.309 58.7068 125.88 58.555 126.442C58.4031 127.004 58.0412 127.452 57.573 127.72C57.1073 127.991 56.5354 128.082 55.9736 127.93ZM71.0571 129.92C70.475 129.92 69.9486 129.684 69.5664 129.302C69.1843 128.92 68.9489 128.394 68.9489 127.811C68.9489 127.229 69.1843 126.703 69.5664 126.323C69.9486 125.941 70.475 125.706 71.0545 125.706C71.6366 125.706 72.163 125.941 72.5452 126.323C72.9273 126.706 73.1627 127.232 73.1627 127.814C73.1627 128.396 72.9273 128.922 72.5452 129.305C72.163 129.687 71.6366 129.922 71.0545 129.922L71.0571 129.92ZM86.1431 127.938C85.5812 128.087 85.0118 127.996 84.5436 127.728C84.0779 127.457 83.7135 127.012 83.5617 126.45C83.4124 125.888 83.5035 125.319 83.7717 124.85C84.0425 124.385 84.4879 124.02 85.0498 123.868C85.6116 123.719 86.181 123.81 86.6492 124.079C87.1149 124.349 87.4793 124.795 87.6312 125.357C87.7805 125.918 87.6894 126.488 87.4211 126.956C87.1529 127.422 86.7049 127.786 86.1431 127.938ZM100.202 122.12C99.698 122.411 99.1235 122.469 98.6022 122.33C98.0808 122.191 97.6151 121.851 97.3241 121.348C97.0331 120.844 96.9749 120.27 97.114 119.748C97.2532 119.227 97.5924 118.761 98.096 118.47C98.5996 118.179 99.1741 118.121 99.6954 118.26C100.217 118.399 100.682 118.739 100.974 119.242C101.265 119.746 101.323 120.32 101.184 120.842C101.044 121.363 100.705 121.829 100.202 122.12ZM112.276 112.86C111.866 113.27 111.324 113.477 110.785 113.477C110.246 113.477 109.707 113.272 109.295 112.86C108.885 112.45 108.677 111.908 108.677 111.369C108.677 110.83 108.882 110.291 109.295 109.878C109.707 109.466 110.246 109.261 110.785 109.261C111.324 109.261 111.863 109.466 112.276 109.878C112.686 110.291 112.894 110.83 112.894 111.369C112.894 111.908 112.689 112.447 112.276 112.86ZM121.541 100.79C121.25 101.294 120.782 101.633 120.263 101.772C119.742 101.911 119.167 101.853 118.664 101.562C118.16 101.271 117.821 100.803 117.682 100.284C117.543 99.7627 117.601 99.1883 117.892 98.6846C118.183 98.181 118.651 97.8419 119.17 97.7027C119.691 97.5635 120.266 97.6217 120.769 97.9127C121.273 98.2038 121.612 98.672 121.751 99.1908C121.89 99.7121 121.832 100.287 121.541 100.79ZM127.367 86.7342C127.218 87.2961 126.853 87.744 126.385 88.0123C125.919 88.2806 125.348 88.3742 124.786 88.2224C124.224 88.073 123.776 87.7086 123.508 87.2404C123.239 86.7747 123.146 86.2028 123.298 85.6409C123.447 85.0791 123.811 84.6312 124.28 84.3629C124.745 84.0946 125.317 84.001 125.879 84.1528C126.441 84.3047 126.889 84.6666 127.157 85.1348C127.428 85.6004 127.519 86.1724 127.367 86.7342ZM129.356 71.6507C129.356 72.2328 129.121 72.7592 128.739 73.1414C128.357 73.5235 127.83 73.7589 127.248 73.7589C126.666 73.7589 126.14 73.5235 125.76 73.1414C125.378 72.7592 125.143 72.2328 125.143 71.6533C125.143 71.0712 125.378 70.5448 125.76 70.1626C126.142 69.7805 126.669 69.5451 127.251 69.5451C127.833 69.5451 128.359 69.7805 128.739 70.1626C129.121 70.5448 129.356 71.0712 129.356 71.6533V71.6507ZM127.375 56.5647C127.524 57.1266 127.433 57.696 127.165 58.1642C126.896 58.6298 126.448 58.9943 125.887 59.1461C125.325 59.2954 124.755 59.2043 124.287 58.9361C123.821 58.6653 123.457 58.2199 123.305 57.658C123.156 57.0962 123.247 56.5268 123.515 56.0586C123.786 55.5929 124.231 55.2285 124.793 55.0766C125.355 54.9273 125.925 55.0184 126.393 55.2867C126.858 55.5549 127.223 56.0029 127.375 56.5647ZM121.556 42.5062C121.847 43.0098 121.906 43.5843 121.766 44.1057C121.627 44.627 121.288 45.0927 120.785 45.3837C120.281 45.6747 119.706 45.7329 119.185 45.5938C118.664 45.4546 118.198 45.1154 117.907 44.6118C117.616 44.1082 117.558 43.5337 117.697 43.0123C117.836 42.491 118.175 42.0253 118.679 41.7343C119.183 41.4433 119.757 41.3851 120.278 41.5242C120.8 41.6634 121.265 42.0026 121.556 42.5062ZM112.296 30.4318C112.706 30.8418 112.914 31.3834 112.914 31.9224C112.914 32.4615 112.709 33.0005 112.296 33.4131C111.886 33.8231 111.345 34.0306 110.806 34.0306C110.267 34.0306 109.728 33.8256 109.315 33.4131C108.902 33.0005 108.697 32.4615 108.697 31.9224C108.697 31.3834 108.902 30.8443 109.315 30.4318C109.728 30.0218 110.267 29.8143 110.806 29.8143C111.345 29.8143 111.884 30.0193 112.296 30.4318ZM100.227 21.1666C100.731 21.4576 101.07 21.9258 101.209 22.4446C101.348 22.966 101.29 23.5405 100.999 24.0441C100.708 24.5477 100.24 24.8868 99.7208 25.026C99.1994 25.1652 98.6249 25.107 98.1213 24.816C97.6177 24.5249 97.2786 24.0567 97.1394 23.5379C97.0002 23.0166 97.0584 22.4421 97.3494 21.9385C97.6404 21.4348 98.1087 21.0957 98.6275 20.9565C99.1488 20.8173 99.7233 20.8755 100.227 21.1666ZM86.1709 15.3407C86.7328 15.49 87.1807 15.8545 87.449 16.3227C87.7172 16.7883 87.8109 17.3603 87.659 17.9221C87.5097 18.4839 87.1453 18.9319 86.6771 19.2002C86.2114 19.4684 85.6395 19.5621 85.0776 19.4102C84.5158 19.2584 84.0678 18.8965 83.7996 18.4283C83.5313 17.9626 83.4377 17.3906 83.5895 16.8288C83.7388 16.267 84.1033 15.819 84.5715 15.5508C85.0371 15.28 85.6091 15.1889 86.1709 15.3407ZM71.0849 0.910156C72.2921 0.910156 73.3854 1.3986 74.1775 2.19074C74.9697 2.98287 75.4581 4.07617 75.4581 5.28336C75.4581 6.49054 74.9697 7.58385 74.1775 8.37598C73.3854 9.16812 72.2921 9.65656 71.0849 9.65656C69.8777 9.65656 68.7844 9.16812 67.9923 8.37598C67.2001 7.58385 66.7117 6.49054 66.7117 5.28336C66.7117 4.07617 67.2001 2.98287 67.9923 2.19074C68.7844 1.3986 69.8777 0.910156 71.0849 0.910156ZM89.3951 3.33718C90.5618 3.64847 91.4881 4.40517 92.0474 5.37447V5.377C92.6067 6.34629 92.7965 7.52817 92.4852 8.6898C92.174 9.85143 91.4172 10.7802 90.448 11.3421V11.3446C89.4787 11.9039 88.2968 12.0937 87.1301 11.7824C85.9634 11.4711 85.0371 10.7144 84.4778 9.74514C83.9185 8.77585 83.7287 7.59397 84.04 6.42727C84.3513 5.26058 85.108 4.33178 86.0773 3.77501C87.0466 3.2157 88.2284 3.0259 89.3926 3.33718H89.3951ZM90.5517 6.24H90.5492C90.2126 5.65538 89.6508 5.19984 88.9472 5.01003C88.2436 4.82022 87.53 4.93411 86.9454 5.2707C86.3709 5.60224 85.9204 6.14889 85.7255 6.83726L85.723 6.84485L85.7204 6.85498L85.7154 6.87522C85.5256 7.57878 85.6395 8.29247 85.9761 8.87708C86.3126 9.46169 86.8745 9.91723 87.578 10.107C88.2816 10.2968 88.9953 10.183 89.5799 9.84637H89.5824C90.1645 9.50978 90.62 8.95047 90.8073 8.24438C90.9971 7.53829 90.8832 6.82714 90.5467 6.24253L90.5517 6.24ZM106.458 10.4209L106.493 10.4411L106.506 10.4487C107.526 11.0536 108.209 12.0102 108.495 13.0757C108.784 14.1538 108.66 15.3432 108.057 16.3885V16.391C107.455 17.4362 106.483 18.1372 105.405 18.4283C104.334 18.7143 103.155 18.5953 102.115 18.0031L102.087 17.9879C101.042 17.3856 100.341 16.4138 100.05 15.3356C99.7612 14.2575 99.8827 13.0655 100.488 12.0178L100.5 11.9899L100.513 11.9697H100.515C101.123 10.9498 102.077 10.2639 103.14 9.9805C104.218 9.69199 105.407 9.816 106.453 10.4183L106.455 10.4209V10.4183L106.458 10.4209ZM106.817 13.5211C106.642 12.8681 106.22 12.2835 105.587 11.9191L105.539 11.8912C104.922 11.5521 104.223 11.4863 103.585 11.6584C102.937 11.8305 102.358 12.2481 101.996 12.8631L101.983 12.8858C101.619 13.516 101.545 14.2348 101.723 14.8877C101.897 15.5406 102.32 16.1253 102.953 16.4897V16.4922C103.583 16.8541 104.301 16.9275 104.954 16.7529C105.607 16.5783 106.192 16.1556 106.556 15.5229H106.559C106.921 14.8928 106.994 14.174 106.82 13.5211H106.817ZM121.101 21.6727C121.954 22.5256 122.381 23.6468 122.381 24.7654C122.381 25.884 121.954 27.0026 121.101 27.858C120.248 28.7109 119.127 29.1386 118.008 29.1386C116.89 29.1386 115.771 28.7109 114.916 27.858C114.063 27.0051 113.635 25.884 113.635 24.7654H113.638C113.638 23.6442 114.063 22.5256 114.916 21.6727C115.768 20.8199 116.89 20.3922 118.008 20.3922V20.3947C119.129 20.3947 120.248 20.8199 121.101 21.6727ZM120.645 24.7654C120.645 24.0896 120.387 23.4165 119.873 22.9027C119.357 22.3864 118.681 22.1283 118.011 22.1283V22.1308C117.335 22.1308 116.662 22.389 116.148 22.9027C115.632 23.419 115.374 24.0947 115.374 24.7654H115.376C115.376 25.4411 115.634 26.1143 116.148 26.628C116.662 27.1418 117.338 27.3999 118.011 27.3999C118.686 27.3999 119.36 27.1418 119.873 26.628C120.387 26.1143 120.645 25.4386 120.645 24.7654ZM132.345 36.364C132.937 37.4041 133.056 38.5835 132.77 39.654C132.482 40.7346 131.778 41.7039 130.733 42.3063C129.685 42.9111 128.496 43.0326 127.415 42.7441C126.335 42.4556 125.365 41.752 124.763 40.7068L124.748 40.679C124.156 39.6388 124.037 38.4595 124.323 37.3889C124.611 36.3108 125.312 35.3415 126.36 34.7367V34.7341C127.408 34.1293 128.597 34.0078 129.678 34.2963C130.758 34.5848 131.728 35.2884 132.33 36.3336L132.345 36.3614V36.364ZM131.092 39.206C131.267 38.5531 131.194 37.8344 130.832 37.2042H130.829C130.465 36.574 129.88 36.1489 129.227 35.9742C128.574 35.7996 127.856 35.873 127.225 36.2349L127.203 36.2476C126.585 36.612 126.17 37.1915 125.998 37.8369C125.823 38.4898 125.897 39.2086 126.259 39.8387H126.261C126.626 40.4689 127.21 40.8941 127.863 41.0687C128.516 41.2433 129.235 41.1699 129.865 40.808C130.495 40.4436 130.92 39.859 131.095 39.206H131.092ZM139.416 53.5303C139.684 54.6565 139.487 55.7903 138.948 56.7267C138.389 57.696 137.46 58.4502 136.296 58.764C135.132 59.0753 133.952 58.8855 132.983 58.3261H132.98C132.011 57.7668 131.257 56.838 130.943 55.6739C130.632 54.5097 130.822 53.3278 131.381 52.356C131.94 51.3867 132.869 50.6326 134.033 50.3187L134.048 50.3137L134.127 50.2884H134.152C135.276 50.0201 136.41 50.2175 137.346 50.7566H137.349C138.318 51.3159 139.072 52.2447 139.386 53.4088L139.416 53.5227V53.5303ZM137.447 55.8586C137.784 55.2766 137.898 54.5629 137.708 53.8568V53.8542C137.518 53.1507 137.063 52.5914 136.48 52.2548V52.2523C135.896 51.9157 135.185 51.8018 134.479 51.9916C133.775 52.1814 133.216 52.6369 132.879 53.219C132.543 53.8011 132.429 54.5148 132.618 55.2209C132.808 55.9244 133.264 56.4863 133.848 56.8229V56.8254C134.433 57.162 135.144 57.2759 135.85 57.0861C136.554 56.8963 137.116 56.4407 137.452 55.8561L137.447 55.8586ZM141.777 71.7241C141.777 72.9339 141.289 74.0272 140.499 74.8168C139.71 75.6064 138.616 76.0948 137.407 76.0948V76.0973C136.2 76.0973 135.106 75.6089 134.314 74.8168C133.525 74.0272 133.036 72.9339 133.036 71.7241C133.036 70.5144 133.525 69.4211 134.314 68.6315C135.104 67.8419 136.197 67.3535 137.407 67.3535V67.3509C138.614 67.3509 139.707 67.8394 140.499 68.6315C141.289 69.4211 141.777 70.5144 141.777 71.7241ZM139.272 73.5868C139.75 73.1085 140.046 72.448 140.046 71.7241C140.046 70.9978 139.75 70.3398 139.272 69.8615C138.796 69.3857 138.136 69.0896 137.409 69.0896V69.0871C136.683 69.0871 136.025 69.3832 135.547 69.8615C135.068 70.3398 134.772 71.0003 134.772 71.7241C134.772 72.4505 135.068 73.1085 135.547 73.5868C136.022 74.0626 136.683 74.3587 137.409 74.3587V74.3612C138.136 74.3612 138.794 74.0651 139.272 73.5868ZM139.353 90.0344C139.042 91.2011 138.285 92.1273 137.316 92.6867H137.313C136.344 93.246 135.162 93.4358 134 93.1245C132.839 92.8132 131.91 92.0565 131.348 91.0872H131.345C130.786 90.1179 130.596 88.936 130.908 87.7693C131.219 86.6026 131.976 85.6764 132.945 85.1171C133.914 84.5578 135.096 84.368 136.263 84.6792C137.43 84.9905 138.358 85.7472 138.918 86.7165C139.477 87.6858 139.667 88.8677 139.355 90.0344H139.353ZM136.45 91.191V91.1884C137.035 90.8518 137.49 90.29 137.68 89.5864C137.87 88.8829 137.756 88.1692 137.419 87.5846C137.083 87 136.521 86.5444 135.817 86.3546C135.114 86.1648 134.4 86.2787 133.816 86.6153C133.231 86.9519 132.775 87.5137 132.586 88.2173C132.396 88.9208 132.51 89.6345 132.846 90.2191V90.2217C133.183 90.8037 133.742 91.2593 134.448 91.4466C135.154 91.6364 135.865 91.5225 136.45 91.1859V91.191ZM132.269 107.094C132.249 107.13 132.229 107.165 132.206 107.198L132.203 107.203C131.596 108.188 130.657 108.851 129.614 109.129C128.536 109.418 127.347 109.294 126.302 108.691C125.254 108.087 124.55 107.117 124.262 106.039C123.976 104.969 124.095 103.789 124.687 102.749L124.702 102.721C125.304 101.676 126.276 100.975 127.354 100.684C128.433 100.395 129.625 100.517 130.672 101.122L130.761 101.165L130.789 101.193C131.771 101.8 132.431 102.736 132.71 103.774C132.998 104.852 132.874 106.042 132.272 107.087L132.269 107.089H132.272L132.269 107.094ZM129.169 107.454C129.822 107.279 130.407 106.857 130.771 106.224L130.817 106.145C131.14 105.535 131.201 104.85 131.032 104.225C130.86 103.577 130.442 102.997 129.827 102.635L129.804 102.623C129.174 102.258 128.455 102.185 127.802 102.362C127.149 102.536 126.565 102.959 126.2 103.592H126.198C125.836 104.222 125.763 104.941 125.937 105.594C126.112 106.247 126.534 106.834 127.162 107.196C127.792 107.56 128.511 107.633 129.166 107.456L129.169 107.454ZM121.017 121.738C120.167 122.588 119.046 123.016 117.925 123.016V123.018C116.806 123.018 115.688 122.59 114.832 121.738C113.979 120.885 113.552 119.764 113.552 118.645C113.552 117.526 113.979 116.408 114.832 115.552C115.685 114.699 116.806 114.272 117.925 114.272V114.274C119.046 114.274 120.164 114.699 121.017 115.552C121.868 116.403 122.295 117.524 122.295 118.645H122.298C122.298 119.764 121.87 120.882 121.017 121.738ZM117.925 121.285C118.598 121.285 119.271 121.026 119.787 120.51C120.301 119.996 120.559 119.321 120.559 118.647H120.562C120.562 117.974 120.304 117.301 119.787 116.785C119.271 116.269 118.595 116.01 117.925 116.01V116.013C117.249 116.013 116.576 116.271 116.062 116.785C115.548 117.299 115.29 117.974 115.29 118.647C115.29 119.323 115.548 119.996 116.062 120.51C116.576 121.024 117.252 121.282 117.925 121.282V121.285ZM106.349 132.967C105.304 133.572 104.114 133.693 103.036 133.405C101.955 133.116 100.986 132.412 100.384 131.367L100.265 131.162V131.147C99.7638 130.155 99.6752 129.054 99.946 128.049C100.235 126.969 100.938 125.999 101.983 125.397L102.188 125.278H102.203C103.196 124.777 104.296 124.688 105.301 124.959C106.382 125.248 107.351 125.951 107.953 126.997L108.072 127.202V127.217C108.573 128.209 108.662 129.31 108.391 130.314C108.103 131.395 107.399 132.364 106.354 132.967H106.351H106.349ZM103.484 131.729C104.137 131.904 104.856 131.83 105.486 131.468V131.466C106.116 131.102 106.541 130.517 106.716 129.864C106.89 129.211 106.817 128.492 106.455 127.862V127.86C106.091 127.229 105.506 126.807 104.853 126.632C104.2 126.457 103.482 126.531 102.851 126.893L102.849 126.895C102.219 127.26 101.799 127.844 101.624 128.495C101.449 129.148 101.523 129.866 101.885 130.497V130.499C102.249 131.129 102.834 131.552 103.487 131.727L103.484 131.729ZM89.2813 140.023C88.1171 140.334 86.9352 140.144 85.9634 139.585C84.9941 139.025 84.2399 138.097 83.9261 136.932L83.8957 136.819V136.811C83.6275 135.685 83.8249 134.551 84.3639 133.615C84.9232 132.645 85.852 131.891 87.0162 131.577L87.1301 131.547H87.1377C88.2614 131.279 89.3951 131.476 90.3315 132.015H90.3341C91.3034 132.574 92.0575 133.503 92.3713 134.667L92.4017 134.781V134.789C92.67 135.913 92.4726 137.046 91.9335 137.983C91.3717 138.955 90.4429 139.711 89.2813 140.023ZM86.834 138.084C87.4161 138.421 88.1298 138.534 88.8358 138.345C89.5419 138.155 90.1012 137.702 90.4378 137.12C90.7744 136.535 90.8883 135.821 90.6985 135.115V135.113C90.5087 134.409 90.0532 133.85 89.4711 133.513V133.511C88.8865 133.174 88.1753 133.06 87.4692 133.25H87.4667C86.7631 133.44 86.2038 133.895 85.8672 134.478C85.5306 135.06 85.4167 135.773 85.6066 136.479C85.7964 137.183 86.2519 137.742 86.8365 138.081L86.834 138.084ZM70.9685 142.414C69.7588 142.414 68.6655 141.926 67.8759 141.136C67.0863 140.346 66.5978 139.253 66.5978 138.043H66.5953C66.5953 136.836 67.0837 135.743 67.8759 134.951C68.6655 134.161 69.7588 133.673 70.9685 133.673C72.1782 133.673 73.2715 134.161 74.0611 134.951C74.8532 135.743 75.3417 136.836 75.3417 138.043C75.3417 139.251 74.8532 140.344 74.0611 141.136C73.269 141.928 72.1757 142.417 70.9685 142.417V142.414ZM69.1058 139.909C69.5841 140.387 70.2447 140.683 70.9685 140.683V140.681C71.6973 140.681 72.3553 140.384 72.8311 139.909C73.3069 139.433 73.603 138.772 73.603 138.046C73.603 137.317 73.3069 136.659 72.8311 136.183C72.3528 135.705 71.6923 135.409 70.9685 135.409C70.2421 135.409 69.5841 135.705 69.1058 136.183C68.63 136.659 68.3339 137.32 68.3339 138.046H68.3314C68.3314 138.772 68.6275 139.43 69.1058 139.909ZM52.6582 139.99C51.4941 139.678 50.5653 138.922 50.006 137.95C49.4467 136.981 49.2568 135.799 49.5681 134.637L49.5884 134.564L49.5909 134.561C49.9149 133.435 50.6589 132.534 51.6054 131.985V131.982C52.5747 131.423 53.7566 131.233 54.9233 131.544L54.9967 131.565L54.9992 131.567C56.1279 131.891 57.0289 132.635 57.5755 133.582V133.584C58.1348 134.553 58.3247 135.735 58.0134 136.897C57.7021 138.064 56.9454 138.99 55.9761 139.549C55.0068 140.109 53.8249 140.298 52.6582 139.987V139.99ZM51.5042 137.089C51.8408 137.671 52.4001 138.127 53.1062 138.314C53.8097 138.504 54.5234 138.39 55.108 138.054C55.6926 137.717 56.1482 137.155 56.338 136.452C56.5278 135.745 56.4139 135.034 56.0773 134.45H56.0748C55.7382 133.865 55.1764 133.41 54.4728 133.22H54.4703C53.7667 133.032 53.053 133.146 52.4709 133.483H52.4684C51.8863 133.82 51.4308 134.379 51.2435 135.085V135.087C51.0537 135.794 51.1676 136.507 51.5067 137.089H51.5042ZM20.9525 121.652C20.0996 120.799 19.6719 119.678 19.6719 118.559H19.6745C19.6745 117.438 20.0996 116.319 20.9525 115.466C21.8029 114.616 22.924 114.188 24.0451 114.188V114.186C25.1637 114.186 26.2823 114.613 27.1378 115.466C27.9881 116.317 28.4158 117.438 28.4158 118.559H28.4183C28.4183 119.678 27.9906 120.796 27.1378 121.652C26.2849 122.504 25.1637 122.932 24.0451 122.932C22.9265 122.932 21.8079 122.504 20.9525 121.652ZM21.4055 118.559H21.408C21.408 119.235 21.6662 119.908 22.1799 120.422C22.6937 120.935 23.3694 121.193 24.0426 121.193C24.7183 121.193 25.3915 120.935 25.9053 120.422C26.419 119.908 26.6772 119.232 26.6772 118.559H26.6797C26.6797 117.886 26.4215 117.213 25.9053 116.696C25.3915 116.182 24.7158 115.924 24.0426 115.924V115.922C23.3694 115.922 22.6962 116.18 22.1799 116.696C21.6637 117.213 21.4055 117.888 21.4055 118.559ZM9.60445 106.763C9.10336 105.773 9.01731 104.672 9.28557 103.67C9.57408 102.59 10.2776 101.62 11.3229 101.018C12.3706 100.413 13.5601 100.292 14.6407 100.58C15.7214 100.869 16.6907 101.572 17.293 102.617L17.3082 102.645C17.9004 103.685 18.0193 104.865 17.7333 105.935C17.4448 107.016 16.7413 107.985 15.6961 108.588L15.4911 108.707H15.4759C14.4838 109.208 13.3829 109.296 12.3782 109.025C11.2976 108.737 10.3283 108.033 9.72593 106.988L9.60698 106.783V106.765L9.60445 106.763ZM10.961 104.116C10.7863 104.769 10.8597 105.487 11.2216 106.118H11.2242C11.5886 106.748 12.1732 107.173 12.8261 107.348C13.4791 107.522 14.1978 107.449 14.828 107.087H14.8305C15.4607 106.722 15.8833 106.138 16.058 105.485C16.2326 104.832 16.1592 104.113 15.7973 103.483H15.7948C15.4303 102.853 14.8457 102.428 14.1928 102.253C13.5398 102.078 12.8211 102.152 12.1909 102.514C11.5608 102.878 11.1356 103.463 10.961 104.116ZM2.63719 89.7914C2.36893 88.6652 2.56633 87.5314 3.10539 86.5951C3.66469 85.6258 4.59349 84.8716 5.75766 84.5578L5.87154 84.5274H5.87913C7.00533 84.2591 8.13913 84.4565 9.07552 84.9956V84.9981C10.0448 85.56 10.8015 86.4862 11.1128 87.6504L11.1432 87.7643V87.7719C11.4114 88.8955 11.214 90.0293 10.675 90.9657C10.1131 91.9375 9.18434 92.6942 8.02271 93.0055L7.90883 93.0359H7.90123C6.77756 93.3042 5.64377 93.1068 4.70738 92.5677C3.73556 92.0059 2.97885 91.0771 2.66756 89.9155L2.63719 89.8016V89.794V89.7914ZM4.60615 87.4631C4.26955 88.0452 4.15567 88.7589 4.34548 89.465C4.53528 90.1711 4.9883 90.7304 5.57038 91.067C6.15499 91.4036 6.86867 91.5174 7.57476 91.3276C8.28085 91.1378 8.84016 90.6848 9.17675 90.1027C9.51334 89.5181 9.62723 88.8044 9.43742 88.0983C9.24761 87.3923 8.7946 86.8329 8.21252 86.4964H8.20999C7.62791 86.1598 6.91423 86.0459 6.20814 86.2357C5.50458 86.4255 4.94527 86.881 4.60615 87.4656V87.4631ZM0.275968 71.5976C0.275968 70.3879 0.76441 69.2946 1.55402 68.505C2.34362 67.7154 3.43692 67.2269 4.64664 67.2269V67.2244C5.85383 67.2244 6.94713 67.7128 7.73926 68.505C8.52887 69.2946 9.01731 70.3879 9.01731 71.5976C9.01731 72.8073 8.52887 73.9006 7.73926 74.6902C6.94713 75.4824 5.85383 75.9708 4.64664 75.9708C3.43945 75.9708 2.34615 75.4824 1.55402 74.6902C0.76188 73.8981 0.273438 72.8048 0.273438 71.5976H0.275968ZM2.78145 69.7349C2.30313 70.2133 2.00703 70.8738 2.00703 71.5976H2.00956C2.00956 72.3265 2.30566 72.9845 2.78145 73.4603C3.25724 73.9361 3.91777 74.2322 4.64411 74.2322C5.37298 74.2322 6.03098 73.9361 6.50677 73.4603C6.98509 72.9819 7.28119 72.3214 7.28119 71.5976C7.28119 70.8713 6.98509 70.2133 6.50677 69.7349C6.03098 69.2592 5.37044 68.9631 4.64411 68.9631V68.9605C3.91777 68.9605 3.25977 69.2566 2.78145 69.7349ZM2.70046 53.2873C3.01175 52.1232 3.76846 51.1969 4.73775 50.6351V50.6326C5.70704 50.0732 6.88892 49.8834 8.05561 50.1947L8.129 50.215L8.13154 50.2175C9.26027 50.5414 10.1612 51.2855 10.7079 52.232V52.2345C11.2672 53.2038 11.457 54.3857 11.1457 55.5473L11.1255 55.6207L11.1229 55.6233C10.799 56.7495 10.0549 57.6504 9.10842 58.1996V58.2021C8.13913 58.7614 6.95725 58.9513 5.79056 58.64C4.62386 58.3287 3.69759 57.572 3.13829 56.6027C2.57899 55.6334 2.38918 54.4515 2.70046 53.2848V53.2873ZM5.60075 52.1333C5.01867 52.4699 4.56312 53.0292 4.37584 53.7353C4.18604 54.4389 4.29992 55.1525 4.63652 55.7372C4.97311 56.3218 5.53495 56.7773 6.2385 56.9671C6.94206 57.1569 7.65575 57.043 8.24036 56.7064H8.24289C8.82497 56.3699 9.28051 55.8105 9.46779 55.1045V55.1019C9.65507 54.3984 9.54371 53.6847 9.20712 53.1026H9.20459C8.86799 52.518 8.30616 52.0624 7.6026 51.8726H7.60007C6.89651 51.6854 6.18283 51.7992 5.60075 52.1358H5.59822L5.60075 52.1333ZM9.78414 36.2273C10.3865 35.1821 11.3583 34.4811 12.4364 34.19C13.4386 33.9218 14.5395 34.0103 15.529 34.5089H15.5467L15.7517 34.6278C16.797 35.2302 17.498 36.202 17.789 37.2801C18.0573 38.2848 17.9712 39.3857 17.4701 40.3778V40.393L17.3512 40.598C16.7489 41.6432 15.777 42.3442 14.6989 42.6353C13.6183 42.9238 12.4288 42.8023 11.3811 42.1974V42.1949C10.3333 41.59 9.63229 40.6208 9.34378 39.5426C9.05527 38.462 9.17675 37.2725 9.78161 36.2248L9.78414 36.2273ZM12.8844 35.8679C12.2314 36.0426 11.6468 36.4652 11.2824 37.0979C10.9179 37.7281 10.8445 38.4468 11.0217 39.0998C11.1963 39.7527 11.619 40.3398 12.2466 40.7017H12.2491C12.8793 41.0662 13.598 41.1396 14.251 40.9624C14.9039 40.7878 15.4885 40.3651 15.853 39.735V39.7324C16.2174 39.1023 16.2908 38.3835 16.1136 37.7306C15.939 37.0777 15.5164 36.493 14.8837 36.1286V36.1261C14.2535 35.7642 13.5348 35.6908 12.8818 35.8654L12.8844 35.8679ZM21.036 21.5842C21.8889 20.7313 23.01 20.3036 24.1286 20.3036C25.2473 20.3036 26.3659 20.7313 27.2213 21.5842C28.0741 22.437 28.5018 23.5582 28.5018 24.6768C28.5018 25.7954 28.0741 26.914 27.2213 27.7694C26.3684 28.6223 25.2473 29.05 24.1286 29.05C23.01 29.05 21.8914 28.6223 21.036 27.7694C20.1831 26.9165 19.7554 25.7954 19.7554 24.6768C19.7554 23.5582 20.1831 22.4396 21.036 21.5842ZM24.1286 22.0397C23.4529 22.0397 22.7797 22.2978 22.266 22.8116C21.7522 23.3253 21.4941 24.0011 21.4941 24.6743C21.4941 25.35 21.7522 26.0232 22.266 26.5369C22.7797 27.0507 23.4555 27.3088 24.1286 27.3088C24.8044 27.3088 25.4776 27.0507 25.9913 26.5369C26.5051 26.0232 26.7632 25.3475 26.7632 24.6743C26.7632 23.9985 26.5051 23.3253 25.9913 22.8116C25.4776 22.2978 24.8018 22.0397 24.1286 22.0397ZM35.7045 10.3525C36.7497 9.74767 37.9392 9.62619 39.0173 9.9147C40.06 10.1931 40.9989 10.8562 41.6063 11.8406L41.6113 11.8457L41.6721 11.9495C42.2769 12.9972 42.3984 14.1867 42.1099 15.2673C41.8315 16.3049 41.171 17.2413 40.189 17.8487L40.1789 17.8588L40.0751 17.9196C39.0274 18.5244 37.8379 18.6459 36.7573 18.3574C35.7146 18.079 34.7757 17.416 34.1683 16.4315L34.1632 16.4264L34.1025 16.3227C33.4976 15.2749 33.3762 14.0854 33.6647 13.0048C33.943 11.9672 34.6036 11.0308 35.5855 10.4234L35.5906 10.4183L35.7019 10.3525H35.7045ZM38.5693 11.5901C37.9164 11.4155 37.1951 11.4889 36.5675 11.8508C35.9398 12.2127 35.5172 12.7998 35.3426 13.4527C35.1679 14.1057 35.2413 14.8244 35.6032 15.4521C35.9677 16.0822 36.5523 16.5074 37.2052 16.682C37.8582 16.8567 38.5769 16.7833 39.2071 16.4214V16.4239L39.2096 16.4214C39.8372 16.0595 40.2599 15.4723 40.4345 14.8194C40.6091 14.1664 40.5357 13.4477 40.1738 12.82C39.8094 12.1899 39.2248 11.7647 38.5719 11.5901H38.5693ZM52.8936 3.26632C54.0173 2.99806 55.1511 3.19546 56.0874 3.73452H56.09C57.0593 4.29382 57.8134 5.22262 58.1273 6.38678C58.4385 7.55094 58.2487 8.73282 57.6894 9.70465H57.6869C57.1251 10.6739 56.1988 11.4306 55.0346 11.7419L54.9207 11.7723H54.9132C53.7895 12.0406 52.6557 11.8432 51.7193 11.3041H51.7168C50.7475 10.7448 49.9933 9.816 49.6795 8.65184L49.6491 8.53795V8.53036C49.3809 7.40669 49.5783 6.2729 50.1173 5.3365V5.33397C50.6766 4.36468 51.6054 3.61051 52.7696 3.29669L52.8835 3.26632H52.8911H52.8936ZM55.2219 5.23274C54.6373 4.89615 53.9261 4.78226 53.2201 4.97207H53.2175C52.514 5.16188 51.9547 5.61742 51.6181 6.1995H51.6155C51.2789 6.78412 51.1651 7.49527 51.3549 8.20136V8.20389C51.5447 8.90492 52.0002 9.46422 52.5823 9.80335V9.80588C53.1669 10.1425 53.8781 10.2564 54.5842 10.0665H54.5867C55.2902 9.87674 55.8521 9.42373 56.1861 8.84165V8.83912C56.5227 8.25703 56.6366 7.54335 56.4468 6.83726C56.257 6.1337 55.8015 5.57187 55.2169 5.23527V5.23274H55.2219ZM72.9501 3.40804C72.4743 2.93226 71.8138 2.63615 71.0874 2.63615C70.3586 2.63615 69.7006 2.93226 69.2248 3.40804C68.749 3.88383 68.4529 4.54437 68.4529 5.2707C68.4529 5.99957 68.749 6.65758 69.2248 7.13336C69.7006 7.60915 70.3611 7.90525 71.0874 7.90525C71.8163 7.90525 72.4743 7.60915 72.9501 7.13336C73.4259 6.65758 73.722 5.99704 73.722 5.2707C73.722 4.54184 73.4259 3.88383 72.9501 3.40804Z" fill="black"/>
<circle cx="38.6798" cy="130.285" r="4.04304" fill="#CB8511"/>
<circle cx="44.7403" cy="120.18" r="2.02152" fill="#CB8511"/>
</svg>
