<svg width="49" height="49" viewBox="0 0 49 49" fill="none" xmlns="http://www.w3.org/2000/svg">
<path fill-rule="evenodd" clip-rule="evenodd" d="M6.07076 18.665L0.972299 20.1361C0.414579 20.2447 0 20.7334 0 21.3209V27.6741H0.00493674C0.00493674 28.1974 0.345487 28.6763 0.873591 28.8293L6.07566 30.33C6.41127 31.3963 6.8308 32.4082 7.34901 33.4005L4.76769 38.0754C4.47155 38.5444 4.52584 39.1713 4.93549 39.5761L9.42684 44.0684C9.79701 44.4386 10.3794 44.5373 10.8631 44.2707L15.6061 41.6544C16.5981 42.1728 17.6099 42.5924 18.676 42.928L20.1469 48.0275C20.2554 48.5853 20.7441 49 21.3314 49H27.6784V48.9951C28.2016 48.9951 28.6803 48.6545 28.8333 48.1262L30.3337 42.928C31.3998 42.5924 32.4116 42.1728 33.4037 41.6544L38.0776 44.2363C38.5465 44.5325 39.1683 44.4782 39.578 44.0684L44.0693 39.5762C44.4395 39.206 44.5382 38.6234 44.2717 38.1446L41.6559 33.4006C42.1741 32.4084 42.5936 31.3964 42.9292 30.3301L48.0277 28.859C48.5854 28.7503 49 28.2616 49 27.6742V21.3259H48.9951C48.9951 20.8026 48.6545 20.3237 48.1264 20.1707L42.9293 18.67C42.5937 17.6037 42.1741 16.5918 41.6559 15.5995L44.2372 10.9246C44.5334 10.4556 44.4791 9.82869 44.0694 9.4239L39.5781 4.93165C39.2079 4.56141 38.6255 4.46268 38.1419 4.72925L33.3988 7.34559C32.4068 6.82725 31.395 6.40765 30.3289 6.07198L28.8581 0.972496C28.7495 0.414664 28.2609 0 27.6735 0H21.3216V0.00493808C20.7984 0.00493808 20.3197 0.345554 20.1667 0.873764L18.6663 6.07195C17.6002 6.40763 16.5884 6.82725 15.5963 7.34556L10.9224 4.76372C10.4535 4.46752 9.82672 4.52182 9.42201 4.93156L4.93066 9.42381C4.56049 9.79405 4.46179 10.3766 4.7283 10.8603L7.34411 15.6043C6.83082 16.5867 6.40636 17.5986 6.07076 18.665ZM8.86915 18.0282C8.60263 18.665 8.38053 19.3116 8.20286 19.9583C8.09428 20.3483 7.79321 20.6741 7.37863 20.7926L2.4184 22.2242V26.7658L7.33416 28.1875C7.74381 28.2912 8.08436 28.6022 8.20281 29.0366C8.51868 30.1868 9.13562 31.7467 9.74276 32.7637C9.9698 33.1241 9.9994 33.5881 9.77731 33.9879L7.27988 38.5147L10.488 41.7235L15.0089 39.2256C15.3643 39.033 15.8085 39.0182 16.1836 39.2354C17.3583 39.9019 18.6612 40.4399 19.9593 40.8003C20.3492 40.9089 20.675 41.2101 20.7934 41.6247L22.2247 46.586H26.7655L28.1869 41.6692C28.2905 41.2595 28.6015 40.9189 29.0358 40.8004C30.1858 40.4795 31.7454 39.8674 32.7621 39.2601C33.1224 39.033 33.5863 39.0034 33.9861 39.2256L38.507 41.7235L41.7152 38.5147L39.2178 33.9929C39.0253 33.6375 39.0105 33.1932 39.2276 32.818C39.8939 31.6431 40.4319 30.3399 40.7922 29.0415C40.9008 28.6515 41.2019 28.3257 41.6165 28.2072L46.5767 26.7757V22.234L41.6609 20.8123C41.2513 20.7086 40.9107 20.3976 40.7923 19.9632C40.4715 18.813 39.8595 17.2531 39.2523 16.2361C39.0253 15.8758 38.9957 15.4117 39.2178 15.0119L41.7152 10.4901L38.5071 7.28127L33.9861 9.7792C33.6308 9.97172 33.1866 9.98653 32.8115 9.76933C31.6368 9.1029 30.3339 8.56482 29.0358 8.20443C28.6459 8.09582 28.3201 7.79469 28.2017 7.38003L26.7704 2.4188H22.2296L20.8082 7.33554C20.7045 7.74528 20.3936 8.0859 19.9593 8.20437C18.8093 8.52525 17.2497 9.13737 16.233 9.74463C15.8727 9.97171 15.4087 10.0013 15.009 9.77919L10.488 7.28126L7.27989 10.4851L9.77732 15.007C9.9698 15.3624 9.98461 15.8067 9.76745 16.1818C9.43676 16.7742 9.13568 17.3914 8.86915 18.0282Z" fill="black"/>
<path fill-rule="evenodd" clip-rule="evenodd" d="M24.5005 38.0475C31.9823 38.0475 38.0475 31.9823 38.0475 24.5005C38.0475 17.0186 31.9823 10.9534 24.5005 10.9534C17.0186 10.9534 10.9534 17.0186 10.9534 24.5005C10.9534 31.9823 17.0186 38.0475 24.5005 38.0475ZM24.5005 40.3534C33.2558 40.3534 40.3534 33.2558 40.3534 24.5005C40.3534 15.7451 33.2558 8.64753 24.5005 8.64753C15.7451 8.64753 8.64753 15.7451 8.64753 24.5005C8.64753 33.2558 15.7451 40.3534 24.5005 40.3534Z" fill="black"/>
<path d="M23.3622 14.7967C23.9826 13.7222 25.5336 13.7222 26.154 14.7967L34.5294 29.3033C35.1498 30.3779 34.3743 31.7211 33.1335 31.7211H16.3828C15.142 31.7211 14.3665 30.3779 14.9869 29.3033L23.3622 14.7967Z" fill="#CB8511"/>
<path fill-rule="evenodd" clip-rule="evenodd" d="M24.7581 16.6772L17.3133 29.5719H32.2029L24.7581 16.6772ZM26.154 14.7967C25.5336 13.7222 23.9826 13.7222 23.3622 14.7967L14.9869 29.3033C14.3665 30.3779 15.142 31.7211 16.3828 31.7211H33.1335C34.3743 31.7211 35.1498 30.3779 34.5294 29.3033L26.154 14.7967Z" fill="black"/>
<path fill-rule="evenodd" clip-rule="evenodd" d="M24.7579 20.3737C25.1852 20.3737 25.5316 20.7201 25.5316 21.1474V25.2737C25.5316 25.701 25.1852 26.0474 24.7579 26.0474C24.3306 26.0474 23.9842 25.701 23.9842 25.2737V21.1474C23.9842 20.7201 24.3306 20.3737 24.7579 20.3737Z" fill="black"/>
<path d="M25.7895 27.8526C25.7895 28.4224 25.3276 28.8842 24.7579 28.8842C24.1882 28.8842 23.7263 28.4224 23.7263 27.8526C23.7263 27.2829 24.1882 26.8211 24.7579 26.8211C25.3276 26.8211 25.7895 27.2829 25.7895 27.8526Z" fill="black"/>
</svg>
